<svg width="528" height="186" viewBox="0 0 528 186" fill="none" xmlns="http://www.w3.org/2000/svg">
<g clip-path="url(#clip0_41_1798)">
<g clip-path="url(#clip1_41_1798)">
<path d="M77.2208 55.5506L77.2208 55.5506C77.3521 55.4596 77.4639 55.3434 77.5499 55.2088L77.8432 55.3961L77.5499 55.2088C77.6358 55.0742 77.6942 54.9238 77.7215 54.7665C77.7488 54.6091 77.7446 54.4479 77.7091 54.2922L78.0484 54.2148L77.7091 54.2922C77.6735 54.1365 77.6074 53.9894 77.5145 53.8595L77.513 53.8573C76.2059 51.9994 74.4249 50.5255 72.3553 49.5889L71.8506 49.3605L72.2754 49.0049C73.5352 47.9505 74.4394 46.5333 74.8649 44.9465C75.2905 43.3597 75.2166 41.6803 74.6534 40.137C74.0902 38.5937 73.065 37.2614 71.7175 36.3216C70.37 35.3818 68.7656 34.8802 67.1227 34.8849L67.1211 34.8849C66.39 34.8837 65.6623 34.9847 64.9591 35.1849L64.9529 35.1866L64.9528 35.1866C64.7966 35.2279 64.6502 35.2999 64.5221 35.3984C64.394 35.4968 64.2868 35.6198 64.2067 35.7601C64.1266 35.9004 64.0752 36.0552 64.0554 36.2156C64.0357 36.3759 64.0481 36.5386 64.0919 36.6941C64.1356 36.8496 64.2099 36.9949 64.3103 37.1215L64.0377 37.3378L64.3104 37.1215C64.4108 37.248 64.5354 37.3533 64.6769 37.4312L64.5091 37.7361L64.6769 37.4312C64.8185 37.5092 64.9741 37.5582 65.1347 37.5754C65.2954 37.5926 65.4578 37.5777 65.6127 37.5315L65.6167 37.5303L65.6167 37.5303C66.1063 37.3906 66.6131 37.3202 67.1223 37.3212M77.2208 55.5506L67.1217 37.6692M77.2208 55.5506L77.2168 55.5535C77.0136 55.6987 76.77 55.7764 76.5202 55.7757C76.3249 55.7745 76.1327 55.7269 75.9594 55.6367C75.7862 55.5466 75.6369 55.4165 75.5239 55.2574M77.2208 55.5506L75.2396 55.4581M67.1223 37.3212L67.1217 37.6692M67.1223 37.3212C67.1221 37.3212 67.1219 37.3212 67.1217 37.3212V37.6692M67.1223 37.3212C68.599 37.3214 70.0151 37.908 71.0592 38.9522C72.1035 39.9965 72.6902 41.4129 72.6902 42.8897C72.6902 44.3666 72.1035 45.783 71.0592 46.8273C70.0149 47.8716 68.5986 48.4583 67.1217 48.4583C66.7986 48.4583 66.4888 48.5866 66.2603 48.8151C66.0319 49.0435 65.9036 49.3533 65.9036 49.6764C65.9036 49.9995 66.0319 50.3093 66.2603 50.5378C66.4888 50.7662 66.7986 50.8945 67.1217 50.8945H67.1221C68.7695 50.8963 70.3924 51.2935 71.8545 52.0528C73.3164 52.812 74.5748 53.9109 75.5239 55.2574M67.1217 37.6692C68.5062 37.6692 69.8341 38.2192 70.8131 39.1983C71.7922 40.1773 72.3422 41.5052 72.3422 42.8897C72.3422 44.2743 71.7922 45.6022 70.8131 46.5812C69.8341 47.5602 68.5062 48.1103 67.1217 48.1103C66.7063 48.1103 66.308 48.2753 66.0142 48.569C65.7205 48.8627 65.5555 49.261 65.5555 49.6764C65.5555 50.0918 65.7205 50.4901 66.0142 50.7839C66.308 51.0776 66.7063 51.2426 67.1217 51.2426C68.7134 51.2443 70.2815 51.6281 71.6941 52.3616C73.1067 53.0952 74.3226 54.1571 75.2396 55.4581M75.5239 55.2574C75.5237 55.2572 75.5236 55.257 75.5235 55.2568L75.2396 55.4581M75.5239 55.2574C75.5239 55.2574 75.524 55.2575 75.5241 55.2576L75.2396 55.4581M61.638 49.0055L61.2152 49.3611L61.7185 49.5889C63.7881 50.5255 65.5691 51.9994 66.8762 53.8573L66.8812 53.8644L66.8865 53.8712C66.988 54.0013 67.0621 54.1507 67.1041 54.3102C67.1462 54.4698 67.1554 54.6362 67.1312 54.7995C67.107 54.9627 67.0498 55.1193 66.9633 55.2598C66.8767 55.4003 66.7625 55.5217 66.6275 55.6167C66.4926 55.7117 66.3398 55.7783 66.1783 55.8125C66.0169 55.8466 65.8502 55.8476 65.6883 55.8154C65.5265 55.7832 65.3729 55.7184 65.2368 55.625C65.1008 55.5316 64.9851 55.4115 64.8969 55.272L64.8924 55.265L64.8876 55.2582C63.9405 53.9091 62.6824 52.808 61.2199 52.0478C59.7573 51.2876 58.1332 50.8908 56.4849 50.8908C54.8365 50.8908 53.2124 51.2876 51.7499 52.0478C50.2873 52.808 49.0293 53.9091 48.0821 55.2581L48.0813 55.2593C47.97 55.4192 47.8215 55.5497 47.6487 55.6396C47.4759 55.7296 47.2838 55.7763 47.0889 55.7757L47.0868 55.7757C46.8369 55.7765 46.5931 55.6988 46.3898 55.5535L46.3881 55.5523C46.1246 55.3663 45.9456 55.0833 45.8904 54.7656C45.8352 54.4478 45.9083 54.1212 46.0935 53.8573C47.4006 51.9994 49.1816 50.5255 51.2512 49.5889L51.7545 49.3611L51.3318 49.0055C50.0753 47.9485 49.1743 46.5308 48.7509 44.9444C48.3274 43.3581 48.402 41.6799 48.9645 40.1374C49.5271 38.5949 50.5503 37.2627 51.8956 36.3213C53.2408 35.38 54.843 34.8751 56.4849 34.8751C58.1267 34.8751 59.7289 35.38 61.0742 36.3213C62.4194 37.2627 63.4427 38.5949 64.0052 40.1374C64.5677 41.6799 64.6423 43.3581 64.2189 44.9444C63.7954 46.5308 62.8944 47.9485 61.638 49.0055ZM51.8548 39.796C51.2429 40.7118 50.9163 41.7884 50.9163 42.8897C50.9163 44.3666 51.503 45.783 52.5473 46.8273C53.5916 47.8716 55.008 48.4583 56.4849 48.4583C57.5862 48.4583 58.6628 48.1317 59.5786 47.5198C60.4943 46.9079 61.2081 46.0382 61.6295 45.0207C62.051 44.0032 62.1613 42.8836 61.9464 41.8034C61.7316 40.7232 61.2012 39.7309 60.4224 38.9522C59.6437 38.1734 58.6514 37.643 57.5712 37.4282C56.491 37.2133 55.3714 37.3236 54.3539 37.7451C53.3363 38.1665 52.4667 38.8803 51.8548 39.796Z" fill="#4CAF4F" stroke="#4CAF4F" stroke-width="0.696069"/>
</g>
<g clip-path="url(#clip2_41_1798)">
<path d="M90.6977 44V41.8406L95.7433 37.1688C96.1724 36.7536 96.5323 36.3798 96.823 36.0476C97.1183 35.7154 97.342 35.3901 97.4943 35.0717C97.6466 34.7487 97.7227 34.4004 97.7227 34.0266C97.7227 33.6114 97.6281 33.2538 97.4389 32.9539C97.2498 32.6493 96.9914 32.4163 96.6638 32.2548C96.3362 32.0887 95.9647 32.0057 95.5495 32.0057C95.1157 32.0057 94.7374 32.0933 94.4144 32.2687C94.0914 32.444 93.8422 32.6955 93.6669 33.0231C93.4916 33.3507 93.4039 33.7406 93.4039 34.1927H90.5593C90.5593 33.2653 90.7693 32.4601 91.1891 31.7773C91.609 31.0944 92.1973 30.5661 92.954 30.1923C93.7107 29.8186 94.5828 29.6317 95.5702 29.6317C96.5853 29.6317 97.4689 29.8117 98.221 30.1716C98.9777 30.5268 99.566 31.0205 99.9859 31.6527C100.406 32.2848 100.616 33.0092 100.616 33.8259C100.616 34.3612 100.51 34.8895 100.297 35.4109C100.09 35.9323 99.7183 36.5113 99.1831 37.1481C98.6478 37.7802 97.8934 38.5392 96.9198 39.4251L94.8504 41.453V41.5499H100.803V44H90.6977ZM106.206 42.0621L106.13 42.8234C106.07 43.4325 105.955 44.0392 105.784 44.6437C105.618 45.2527 105.443 45.8041 105.258 46.2978C105.078 46.7915 104.933 47.1791 104.822 47.4606H102.912C102.981 47.1883 103.076 46.8077 103.196 46.3186C103.316 45.8341 103.429 45.2896 103.535 44.6852C103.641 44.0807 103.708 43.4648 103.735 42.8372L103.77 42.0621H106.206ZM108.874 44V41.8406L113.92 37.1688C114.349 36.7536 114.709 36.3798 115 36.0476C115.295 35.7154 115.519 35.3901 115.671 35.0717C115.823 34.7487 115.899 34.4004 115.899 34.0266C115.899 33.6114 115.805 33.2538 115.616 32.9539C115.426 32.6493 115.168 32.4163 114.84 32.2548C114.513 32.0887 114.141 32.0057 113.726 32.0057C113.292 32.0057 112.914 32.0933 112.591 32.2687C112.268 32.444 112.019 32.6955 111.844 33.0231C111.668 33.3507 111.581 33.7406 111.581 34.1927H108.736C108.736 33.2653 108.946 32.4601 109.366 31.7773C109.786 31.0944 110.374 30.5661 111.131 30.1923C111.887 29.8186 112.759 29.6317 113.747 29.6317C114.762 29.6317 115.646 29.8117 116.398 30.1716C117.154 30.5268 117.743 31.0205 118.163 31.6527C118.582 32.2848 118.792 33.0092 118.792 33.8259C118.792 34.3612 118.686 34.8895 118.474 35.4109C118.266 35.9323 117.895 36.5113 117.36 37.1481C116.824 37.7802 116.07 38.5392 115.097 39.4251L113.027 41.453V41.5499H118.979V44H108.874ZM120.632 41.5084V39.1483L126.549 29.8255H128.584V33.0923H127.38L123.649 38.996V39.1068H132.059V41.5084H120.632ZM127.435 44V40.7886L127.491 39.7435V29.8255H130.301V44H127.435ZM139.232 44.1938C138.254 44.1938 137.382 44.0138 136.616 43.6539C135.855 43.294 135.25 42.798 134.803 42.1659C134.355 41.5338 134.122 40.8094 134.104 39.9927H137.011C137.043 40.5417 137.274 40.987 137.703 41.3284C138.132 41.6699 138.642 41.8406 139.232 41.8406C139.703 41.8406 140.118 41.7368 140.478 41.5292C140.843 41.3169 141.126 41.0239 141.329 40.6502C141.537 40.2718 141.641 39.8381 141.641 39.349C141.641 38.8507 141.535 38.4123 141.322 38.034C141.115 37.6556 140.826 37.3603 140.457 37.1481C140.088 36.9358 139.666 36.8274 139.191 36.8228C138.775 36.8228 138.372 36.9081 137.98 37.0789C137.592 37.2496 137.29 37.4826 137.073 37.7779L134.408 37.3003L135.08 29.8255H143.745V32.2756H137.55L137.184 35.8261H137.267C137.516 35.4755 137.892 35.1848 138.395 34.9541C138.898 34.7234 139.461 34.608 140.084 34.608C140.937 34.608 141.699 34.8087 142.368 35.2101C143.037 35.6116 143.565 36.163 143.952 36.8643C144.34 37.561 144.532 38.3639 144.527 39.2729C144.532 40.228 144.31 41.077 143.863 41.8198C143.42 42.5581 142.799 43.1395 142.001 43.564C141.207 43.9839 140.284 44.1938 139.232 44.1938ZM149.393 42.0621L149.316 42.8234C149.256 43.4325 149.141 44.0392 148.97 44.6437C148.804 45.2527 148.629 45.8041 148.444 46.2978C148.264 46.7915 148.119 47.1791 148.008 47.4606H146.098C146.167 47.1883 146.262 46.8077 146.382 46.3186C146.502 45.8341 146.615 45.2896 146.721 44.6852C146.827 44.0807 146.894 43.4648 146.922 42.8372L146.956 42.0621H149.393ZM156.843 44.1938C155.81 44.1938 154.889 44.0161 154.082 43.6609C153.279 43.301 152.644 42.8073 152.178 42.1797C151.717 41.5476 151.479 40.8186 151.465 39.9927H154.483C154.501 40.3387 154.615 40.6432 154.822 40.9062C155.034 41.1646 155.316 41.3654 155.667 41.5084C156.017 41.6514 156.412 41.7229 156.85 41.7229C157.307 41.7229 157.711 41.6422 158.061 41.4807C158.412 41.3192 158.686 41.0954 158.885 40.8094C159.083 40.5233 159.182 40.1934 159.182 39.8196C159.182 39.4413 159.076 39.1068 158.864 38.8161C158.656 38.5208 158.357 38.2901 157.964 38.1239C157.577 37.9578 157.115 37.8748 156.58 37.8748H155.258V35.6739H156.58C157.032 35.6739 157.431 35.5954 157.777 35.4385C158.128 35.2817 158.4 35.0648 158.594 34.788C158.788 34.5065 158.885 34.1789 158.885 33.8052C158.885 33.4499 158.799 33.1384 158.629 32.8708C158.463 32.5986 158.227 32.3863 157.923 32.2341C157.623 32.0818 157.272 32.0057 156.871 32.0057C156.465 32.0057 156.093 32.0795 155.757 32.2271C155.42 32.3702 155.15 32.5755 154.947 32.8431C154.744 33.1107 154.635 33.4245 154.621 33.7844H151.749C151.763 32.9677 151.996 32.2479 152.448 31.625C152.9 31.0021 153.509 30.5153 154.275 30.1646C155.046 29.8093 155.916 29.6317 156.885 29.6317C157.863 29.6317 158.719 29.8093 159.452 30.1646C160.186 30.5199 160.756 30.9998 161.162 31.6042C161.573 32.2041 161.776 32.8777 161.771 33.6252C161.776 34.4188 161.529 35.081 161.03 35.6116C160.537 36.1422 159.893 36.479 159.099 36.6221V36.7328C160.142 36.8666 160.936 37.2288 161.48 37.8194C162.029 38.4054 162.302 39.139 162.297 40.0203C162.302 40.8278 162.069 41.5453 161.598 42.1728C161.132 42.8003 160.488 43.294 159.667 43.6539C158.846 44.0138 157.904 44.1938 156.843 44.1938ZM164.237 41.5084V39.1483L170.154 29.8255H172.189V33.0923H170.985L167.254 38.996V39.1068H175.663V41.5084H164.237ZM171.04 44V40.7886L171.095 39.7435V29.8255H173.905V44H171.04ZM183.637 29.8255V44H180.64V32.6701H180.557L177.311 34.7049V32.0472L180.82 29.8255H183.637Z" fill="#4D4D4D"/>
<path d="M90.5297 53.9003H91.7003L94.453 60.6237H94.5479L97.3005 53.9003H98.4712V62H97.5536V55.8461H97.4745L94.9434 62H94.0575L91.5263 55.8461H91.4472V62H90.5297V53.9003ZM102.858 62.1266C102.273 62.1266 101.768 61.9974 101.343 61.739C100.922 61.4779 100.596 61.1141 100.367 60.6474C100.14 60.1781 100.026 59.6323 100.026 59.0101C100.026 58.3878 100.14 57.8394 100.367 57.3648C100.596 56.8876 100.915 56.5158 101.324 56.2495C101.735 55.9806 102.215 55.8461 102.763 55.8461C103.08 55.8461 103.392 55.8988 103.701 56.0043C104.009 56.1098 104.29 56.2812 104.543 56.5185C104.796 56.7531 104.998 57.0642 105.148 57.4518C105.298 57.8394 105.374 58.3166 105.374 58.8835V59.279H100.691V58.4722H104.424C104.424 58.1294 104.356 57.8236 104.219 57.5546C104.084 57.2857 103.892 57.0735 103.641 56.9179C103.393 56.7623 103.101 56.6846 102.763 56.6846C102.392 56.6846 102.07 56.7768 101.798 56.9614C101.529 57.1433 101.322 57.3806 101.177 57.6733C101.032 57.966 100.96 58.2797 100.96 58.6146V59.1524C100.96 59.6112 101.039 60.0001 101.197 60.3192C101.358 60.6355 101.581 60.8768 101.866 61.0429C102.15 61.2064 102.481 61.2881 102.858 61.2881C103.103 61.2881 103.325 61.2538 103.523 61.1853C103.723 61.1141 103.896 61.0086 104.041 60.8689C104.186 60.7265 104.298 60.5499 104.377 60.3389L105.279 60.592C105.184 60.8979 105.024 61.1668 104.8 61.3988C104.576 61.6282 104.299 61.8075 103.97 61.9367C103.64 62.0633 103.27 62.1266 102.858 62.1266ZM106.793 62V55.9252H107.695V56.8744H107.774C107.901 56.5501 108.105 56.2983 108.387 56.119C108.669 55.9371 109.008 55.8461 109.404 55.8461C109.804 55.8461 110.138 55.9371 110.404 56.119C110.673 56.2983 110.883 56.5501 111.033 56.8744H111.096C111.252 56.5606 111.485 56.3115 111.796 56.1269C112.107 55.9397 112.481 55.8461 112.916 55.8461C113.459 55.8461 113.903 56.0162 114.248 56.3563C114.594 56.6938 114.767 57.2198 114.767 57.9343V62H113.833V57.9343C113.833 57.4861 113.711 57.1657 113.465 56.9733C113.22 56.7808 112.931 56.6846 112.599 56.6846C112.172 56.6846 111.841 56.8138 111.607 57.0721C111.372 57.3279 111.255 57.6522 111.255 58.0451V62H110.305V57.8394C110.305 57.494 110.193 57.2158 109.969 57.0049C109.745 56.7913 109.456 56.6846 109.103 56.6846C108.86 56.6846 108.634 56.7492 108.423 56.8784C108.214 57.0075 108.046 57.1868 107.917 57.4162C107.79 57.643 107.727 57.9053 107.727 58.2033V62H106.793ZM116.6 62V53.9003H117.533V56.8902H117.612C117.681 56.7848 117.776 56.6503 117.897 56.4868C118.021 56.3207 118.197 56.1731 118.427 56.0439C118.659 55.912 118.973 55.8461 119.368 55.8461C119.88 55.8461 120.33 55.974 120.721 56.2297C121.111 56.4855 121.415 56.848 121.634 57.3174C121.853 57.7867 121.963 58.3404 121.963 58.9784C121.963 59.6218 121.853 60.1794 121.634 60.6514C121.415 61.1207 121.112 61.4845 120.725 61.7429C120.337 61.9987 119.89 62.1266 119.384 62.1266C118.994 62.1266 118.681 62.062 118.447 61.9328C118.212 61.8009 118.031 61.652 117.905 61.4859C117.778 61.3171 117.681 61.1774 117.612 61.0666H117.501V62H116.6ZM117.517 58.9626C117.517 59.4214 117.584 59.8261 117.719 60.1768C117.853 60.5248 118.05 60.7977 118.308 60.9954C118.567 61.1906 118.883 61.2881 119.257 61.2881C119.648 61.2881 119.973 61.1853 120.234 60.9796C120.498 60.7713 120.696 60.4918 120.827 60.1412C120.962 59.7879 121.029 59.395 121.029 58.9626C121.029 58.5355 120.963 58.1505 120.831 57.8078C120.702 57.4624 120.506 57.1895 120.242 56.9891C119.981 56.7861 119.653 56.6846 119.257 56.6846C118.878 56.6846 118.559 56.7808 118.3 56.9733C118.042 57.1631 117.847 57.4294 117.715 57.7722C117.583 58.1123 117.517 58.5091 117.517 58.9626ZM125.937 62.1266C125.352 62.1266 124.847 61.9974 124.423 61.739C124.001 61.4779 123.675 61.1141 123.446 60.6474C123.219 60.1781 123.106 59.6323 123.106 59.0101C123.106 58.3878 123.219 57.8394 123.446 57.3648C123.675 56.8876 123.994 56.5158 124.403 56.2495C124.814 55.9806 125.294 55.8461 125.842 55.8461C126.159 55.8461 126.471 55.8988 126.78 56.0043C127.088 56.1098 127.369 56.2812 127.622 56.5185C127.875 56.7531 128.077 57.0642 128.227 57.4518C128.377 57.8394 128.453 58.3166 128.453 58.8835V59.279H123.77V58.4722H127.503C127.503 58.1294 127.435 57.8236 127.298 57.5546C127.163 57.2857 126.971 57.0735 126.72 56.9179C126.472 56.7623 126.18 56.6846 125.842 56.6846C125.471 56.6846 125.149 56.7768 124.877 56.9614C124.608 57.1433 124.401 57.3806 124.256 57.6733C124.111 57.966 124.039 58.2797 124.039 58.6146V59.1524C124.039 59.6112 124.118 60.0001 124.276 60.3192C124.437 60.6355 124.66 60.8768 124.945 61.0429C125.229 61.2064 125.56 61.2881 125.937 61.2881C126.182 61.2881 126.404 61.2538 126.602 61.1853C126.802 61.1141 126.975 61.0086 127.12 60.8689C127.265 60.7265 127.377 60.5499 127.456 60.3389L128.358 60.592C128.263 60.8979 128.103 61.1668 127.879 61.3988C127.655 61.6282 127.378 61.8075 127.049 61.9367C126.719 62.0633 126.349 62.1266 125.937 62.1266ZM129.872 62V55.9252H130.774V56.8428H130.837C130.948 56.5422 131.149 56.2983 131.439 56.1111C131.729 55.9239 132.056 55.8303 132.419 55.8303C132.488 55.8303 132.574 55.8316 132.676 55.8342C132.779 55.8369 132.857 55.8408 132.91 55.8461V56.7953C132.878 56.7874 132.806 56.7755 132.692 56.7597C132.582 56.7412 132.464 56.732 132.34 56.732C132.045 56.732 131.781 56.794 131.549 56.9179C131.32 57.0392 131.138 57.2079 131.004 57.4241C130.872 57.6377 130.806 57.8816 130.806 58.1558V62H129.872ZM138.319 57.2857L137.481 57.523C137.428 57.3833 137.35 57.2475 137.247 57.1156C137.147 56.9812 137.01 56.8704 136.836 56.7834C136.662 56.6964 136.439 56.6529 136.168 56.6529C135.796 56.6529 135.486 56.7386 135.238 56.91C134.993 57.0787 134.87 57.2936 134.87 57.5546C134.87 57.7867 134.955 57.9699 135.124 58.1044C135.292 58.2389 135.556 58.3509 135.915 58.4406L136.816 58.662C137.359 58.7939 137.764 58.9956 138.03 59.2671C138.297 59.5361 138.43 59.8828 138.43 60.3073C138.43 60.6553 138.33 60.9664 138.129 61.2407C137.932 61.5149 137.655 61.7311 137.299 61.8893C136.943 62.0475 136.529 62.1266 136.057 62.1266C135.437 62.1266 134.925 61.9921 134.518 61.7232C134.112 61.4542 133.855 61.0614 133.747 60.5446L134.633 60.3231C134.718 60.65 134.877 60.8953 135.112 61.0587C135.349 61.2222 135.659 61.3039 136.041 61.3039C136.476 61.3039 136.822 61.2116 137.077 61.0271C137.336 60.8399 137.465 60.6158 137.465 60.3547C137.465 60.1438 137.391 59.9672 137.243 59.8248C137.096 59.6798 136.869 59.5717 136.563 59.5005L135.551 59.2632C134.994 59.1314 134.586 58.927 134.325 58.6502C134.066 58.3707 133.937 58.0213 133.937 57.6021C133.937 57.2593 134.033 56.9561 134.226 56.6925C134.421 56.4288 134.686 56.2218 135.021 56.0715C135.358 55.9213 135.741 55.8461 136.168 55.8461C136.769 55.8461 137.241 55.9779 137.584 56.2416C137.929 56.5053 138.174 56.8533 138.319 57.2857Z" fill="#717171"/>
</g>
<mask id="path-4-inside-1_41_1798" fill="white">
<path d="M263.086 45.2527C262.918 45.2527 262.763 45.2066 262.624 45.1325V45.1345C262.624 45.3982 262.522 45.6458 262.336 45.8313C262.15 46.0173 261.902 46.1198 261.639 46.1198C261.469 46.1198 261.311 46.0725 261.172 45.9964C261.158 46.2377 261.061 46.4632 260.889 46.6354C260.703 46.8213 260.456 46.9238 260.192 46.9238C259.668 46.9238 259.243 46.5122 259.213 45.9963C259.051 46.0838 258.867 46.1298 258.678 46.1176C258.163 46.0838 257.76 45.6388 257.76 45.1041V40.6725L257.255 41.5467C257.063 41.8811 256.703 42.0887 256.316 42.0887C256.127 42.0887 255.941 42.0392 255.776 41.9446C255.57 41.8254 255.423 41.634 255.362 41.405C255.3 41.1759 255.332 40.9363 255.451 40.731C255.451 40.731 257.102 37.8721 257.203 37.6965C257.215 37.6701 257.249 37.5935 257.278 37.5282C257.306 37.4659 257.329 37.402 257.352 37.3377C257.85 35.9321 259.083 35.059 260.569 35.059C262.5 35.059 264.071 36.7622 264.071 38.8558L264.071 44.2673C264.071 44.5307 263.969 44.7781 263.783 44.9643C263.597 45.1502 263.349 45.2527 263.086 45.2527L263.086 45.2527ZM260.569 35.5826C259.292 35.5826 258.274 36.3042 257.846 37.5128C257.818 37.5895 257.79 37.6663 257.756 37.7411C257.66 37.9577 257.66 37.9577 257.633 37.9888L257.629 37.9857C257.494 38.2401 257.094 38.9336 255.904 40.993C255.855 41.0775 255.842 41.1756 255.867 41.2694C255.893 41.3632 255.953 41.4422 256.037 41.4906C256.297 41.64 256.653 41.5436 256.801 41.2853L257.795 39.565C257.854 39.4625 257.974 39.4121 258.09 39.4433C258.204 39.474 258.284 39.5778 258.284 39.6962V45.1043C258.284 45.3595 258.476 45.5797 258.713 45.5953C258.849 45.6025 258.976 45.5567 259.072 45.4613C259.159 45.3744 259.207 45.2586 259.207 45.1348V41.5978C259.207 41.4532 259.324 41.3359 259.469 41.3359C259.613 41.3359 259.731 41.453 259.731 41.5978L259.73 45.9387C259.73 46.1933 259.938 46.4004 260.192 46.4004C260.316 46.4004 260.432 46.3525 260.519 46.2656C260.606 46.1785 260.654 46.0624 260.654 45.9387V41.5978C260.654 41.4531 260.771 41.3359 260.916 41.3359C261.06 41.3359 261.178 41.453 261.178 41.5978L261.177 45.0941V45.1348C261.177 45.3891 261.385 45.5962 261.639 45.5962C261.763 45.5962 261.878 45.5482 261.966 45.4609C262.053 45.3742 262.101 45.2584 262.101 45.1346V41.5976C262.101 41.453 262.218 41.3357 262.363 41.3357C262.507 41.3357 262.625 41.4528 262.625 41.5976L262.624 44.2674C262.624 44.5221 262.831 44.7292 263.086 44.7292C263.21 44.7292 263.325 44.6812 263.412 44.5944C263.5 44.5072 263.547 44.3911 263.547 44.2674L263.547 38.8559C263.547 37.0512 262.212 35.5826 260.569 35.5826L260.569 35.5826Z"/>
</mask>
<path d="M263.086 45.2527C262.918 45.2527 262.763 45.2066 262.624 45.1325V45.1345C262.624 45.3982 262.522 45.6458 262.336 45.8313C262.15 46.0173 261.902 46.1198 261.639 46.1198C261.469 46.1198 261.311 46.0725 261.172 45.9964C261.158 46.2377 261.061 46.4632 260.889 46.6354C260.703 46.8213 260.456 46.9238 260.192 46.9238C259.668 46.9238 259.243 46.5122 259.213 45.9963C259.051 46.0838 258.867 46.1298 258.678 46.1176C258.163 46.0838 257.76 45.6388 257.76 45.1041V40.6725L257.255 41.5467C257.063 41.8811 256.703 42.0887 256.316 42.0887C256.127 42.0887 255.941 42.0392 255.776 41.9446C255.57 41.8254 255.423 41.634 255.362 41.405C255.3 41.1759 255.332 40.9363 255.451 40.731C255.451 40.731 257.102 37.8721 257.203 37.6965C257.215 37.6701 257.249 37.5935 257.278 37.5282C257.306 37.4659 257.329 37.402 257.352 37.3377C257.85 35.9321 259.083 35.059 260.569 35.059C262.5 35.059 264.071 36.7622 264.071 38.8558L264.071 44.2673C264.071 44.5307 263.969 44.7781 263.783 44.9643C263.597 45.1502 263.349 45.2527 263.086 45.2527L263.086 45.2527ZM260.569 35.5826C259.292 35.5826 258.274 36.3042 257.846 37.5128C257.818 37.5895 257.79 37.6663 257.756 37.7411C257.66 37.9577 257.66 37.9577 257.633 37.9888L257.629 37.9857C257.494 38.2401 257.094 38.9336 255.904 40.993C255.855 41.0775 255.842 41.1756 255.867 41.2694C255.893 41.3632 255.953 41.4422 256.037 41.4906C256.297 41.64 256.653 41.5436 256.801 41.2853L257.795 39.565C257.854 39.4625 257.974 39.4121 258.09 39.4433C258.204 39.474 258.284 39.5778 258.284 39.6962V45.1043C258.284 45.3595 258.476 45.5797 258.713 45.5953C258.849 45.6025 258.976 45.5567 259.072 45.4613C259.159 45.3744 259.207 45.2586 259.207 45.1348V41.5978C259.207 41.4532 259.324 41.3359 259.469 41.3359C259.613 41.3359 259.731 41.453 259.731 41.5978L259.73 45.9387C259.73 46.1933 259.938 46.4004 260.192 46.4004C260.316 46.4004 260.432 46.3525 260.519 46.2656C260.606 46.1785 260.654 46.0624 260.654 45.9387V41.5978C260.654 41.4531 260.771 41.3359 260.916 41.3359C261.06 41.3359 261.178 41.453 261.178 41.5978L261.177 45.0941V45.1348C261.177 45.3891 261.385 45.5962 261.639 45.5962C261.763 45.5962 261.878 45.5482 261.966 45.4609C262.053 45.3742 262.101 45.2584 262.101 45.1346V41.5976C262.101 41.453 262.218 41.3357 262.363 41.3357C262.507 41.3357 262.625 41.4528 262.625 41.5976L262.624 44.2674C262.624 44.5221 262.831 44.7292 263.086 44.7292C263.21 44.7292 263.325 44.6812 263.412 44.5944C263.5 44.5072 263.547 44.3911 263.547 44.2674L263.547 38.8559C263.547 37.0512 262.212 35.5826 260.569 35.5826L260.569 35.5826Z" fill="#4CAF4F"/>
<path d="M263.086 45.2527V44.3246H266.365L263.572 46.0431L263.086 45.2527ZM262.624 45.1325H261.696V43.5818L263.063 44.3146L262.624 45.1325ZM262.336 45.8313L261.68 45.175L261.68 45.1742L262.336 45.8313ZM261.172 45.9964L260.245 45.9423L260.331 44.4816L261.616 45.1814L261.172 45.9964ZM260.889 46.6354L261.546 47.2913L261.545 47.2916L260.889 46.6354ZM259.213 45.9963L258.771 45.1798L260.053 44.4873L260.139 45.9412L259.213 45.9963ZM258.678 46.1176L258.619 47.0438L258.618 47.0437L258.678 46.1176ZM257.76 40.6725L256.956 40.2085L258.688 37.2081V40.6725H257.76ZM257.255 41.5467L256.451 41.0842L256.451 41.0828L257.255 41.5467ZM255.776 41.9446L255.314 42.7499L255.31 42.7475L255.776 41.9446ZM255.362 41.405L256.258 41.1644L256.258 41.1655L255.362 41.405ZM255.451 40.731L254.648 40.266L254.916 39.8029H255.451V40.731ZM257.203 37.6965L258.048 38.0798L258.03 38.12L258.008 38.1582L257.203 37.6965ZM257.278 37.5282L256.43 37.1511L256.43 37.1511L257.278 37.5282ZM257.352 37.3377L258.227 37.6476L258.227 37.6478L257.352 37.3377ZM264.071 38.8558L263.143 38.8558V38.8558H264.071ZM264.071 44.2673L264.999 44.2673V44.2673H264.071ZM263.783 44.9643L264.44 45.6199L264.439 45.6205L263.783 44.9643ZM263.086 45.2527V46.1808H259.807L262.599 44.4623L263.086 45.2527ZM260.569 35.5826V34.6545H261.8L261.462 35.8375L260.569 35.5826ZM257.846 37.5128L258.72 37.8227L258.72 37.8247L257.846 37.5128ZM257.756 37.7411L258.604 38.1185L258.604 38.119L257.756 37.7411ZM257.633 37.9888L258.331 38.5995L257.724 39.2944L257.026 38.6912L257.633 37.9888ZM257.629 37.9857L256.809 37.5511L257.354 36.5222L258.236 37.2833L257.629 37.9857ZM255.904 40.993L256.708 41.4572L256.708 41.4579L255.904 40.993ZM255.867 41.2694L254.971 41.5106L254.97 41.5077L255.867 41.2694ZM256.037 41.4906L255.575 42.2954L255.573 42.2944L256.037 41.4906ZM256.801 41.2853L255.996 40.8233L255.998 40.8211L256.801 41.2853ZM257.795 39.565L256.991 39.1008L256.992 39.0998L257.795 39.565ZM258.09 39.4433L257.849 40.3398L257.847 40.3391L258.09 39.4433ZM258.713 45.5953L258.664 46.5221L258.652 46.5214L258.713 45.5953ZM259.072 45.4613L259.728 46.1176L259.728 46.1181L259.072 45.4613ZM259.731 41.5978H260.659V41.5978L259.731 41.5978ZM259.73 45.9387H258.802V45.9387L259.73 45.9387ZM260.519 46.2656L261.176 46.9212L261.175 46.9225L260.519 46.2656ZM261.178 41.5978H262.106V41.5978L261.178 41.5978ZM261.177 45.0941H260.249V45.0941L261.177 45.0941ZM261.966 45.4609L262.622 46.1178L262.621 46.1184L261.966 45.4609ZM262.625 41.5976H263.553V41.5977L262.625 41.5976ZM262.624 44.2674H261.696V44.2673L262.624 44.2674ZM263.412 44.5944L264.069 45.2507L264.068 45.2513L263.412 44.5944ZM263.547 44.2674H262.619V44.2674L263.547 44.2674ZM263.547 38.8559H264.476V38.856L263.547 38.8559ZM260.569 35.5826V36.5107H259.339L259.677 35.3277L260.569 35.5826ZM263.086 46.1808C262.744 46.1808 262.439 46.0862 262.186 45.9504L263.063 44.3146C263.075 44.321 263.082 44.3235 263.086 44.3243C263.088 44.325 263.088 44.3246 263.086 44.3246V46.1808ZM263.552 45.1325V45.1345H261.696V45.1325H263.552ZM263.552 45.1345C263.552 45.6436 263.353 46.128 262.991 46.4884L261.68 45.1742C261.687 45.1676 261.69 45.1619 261.692 45.1573C261.694 45.1526 261.696 45.1455 261.696 45.1345H263.552ZM262.992 46.4876C262.632 46.8477 262.148 47.0479 261.639 47.0479V45.1917C261.65 45.1917 261.657 45.1897 261.661 45.1878C261.666 45.1858 261.672 45.1823 261.68 45.175L262.992 46.4876ZM261.639 47.0479C261.293 47.0479 260.984 46.951 260.728 46.8115L261.616 45.1814C261.628 45.1879 261.635 45.1905 261.638 45.1913C261.641 45.192 261.641 45.1917 261.639 45.1917V47.0479ZM262.098 46.0506C262.071 46.5074 261.886 46.9505 261.546 47.2913L260.232 45.9794C260.236 45.976 260.238 45.973 260.24 45.9691C260.241 45.9649 260.244 45.9564 260.245 45.9423L262.098 46.0506ZM261.545 47.2916C261.185 47.6519 260.702 47.8519 260.192 47.8519V45.9957C260.203 45.9957 260.21 45.9938 260.215 45.9918C260.219 45.9898 260.226 45.9863 260.233 45.9791L261.545 47.2916ZM260.192 47.8519C259.167 47.8519 258.345 47.0478 258.286 46.0513L260.139 45.9412C260.14 45.957 260.146 45.9709 260.158 45.9818C260.163 45.9871 260.169 45.9905 260.174 45.9925C260.178 45.9943 260.184 45.9957 260.192 45.9957V47.8519ZM259.654 46.8127C259.354 46.9748 258.999 47.0682 258.619 47.0438L258.738 45.1914C258.738 45.1914 258.74 45.1916 258.745 45.1905C258.75 45.1893 258.759 45.1864 258.771 45.1798L259.654 46.8127ZM258.618 47.0437C257.587 46.9762 256.832 46.0998 256.832 45.1041H258.688C258.688 45.1355 258.699 45.1597 258.714 45.1754C258.728 45.1908 258.737 45.1914 258.739 45.1915L258.618 47.0437ZM256.832 45.1041V40.6725H258.688V45.1041H256.832ZM258.564 41.1365L258.059 42.0107L256.451 41.0828L256.956 40.2085L258.564 41.1365ZM258.06 42.0092C257.701 42.6332 257.034 43.0168 256.316 43.0168V41.1606C256.373 41.1606 256.425 41.1291 256.451 41.0842L258.06 42.0092ZM256.316 43.0168C255.965 43.0168 255.619 42.9248 255.314 42.7498L256.237 41.1393C256.262 41.1536 256.289 41.1606 256.316 41.1606V43.0168ZM255.31 42.7475C254.893 42.5059 254.59 42.1128 254.465 41.6446L256.258 41.1655C256.257 41.1623 256.255 41.1567 256.251 41.1509C256.246 41.1451 256.242 41.1423 256.241 41.1417L255.31 42.7475ZM254.465 41.6456C254.34 41.1778 254.405 40.6843 254.648 40.266L256.254 41.1961C256.255 41.1938 256.258 41.1885 256.259 41.181C256.26 41.1735 256.259 41.1675 256.258 41.1644L254.465 41.6456ZM255.451 39.8029C254.996 39.9223 254.655 40.2538 254.652 40.2581C254.651 40.2595 254.65 40.2617 254.65 40.2624C254.65 40.2628 254.649 40.2635 254.649 40.2637C254.649 40.2638 254.649 40.2641 254.649 40.2642C254.649 40.2644 254.649 40.2643 254.649 40.2637C254.65 40.2626 254.651 40.2608 254.652 40.2582C254.655 40.2529 254.66 40.245 254.666 40.2345C254.678 40.2136 254.696 40.1828 254.718 40.1436C254.764 40.0651 254.829 39.9528 254.907 39.8174C255.063 39.5467 255.273 39.1839 255.485 38.8155C255.911 38.0777 256.348 37.321 256.398 37.2348L258.008 38.1582C257.957 38.2476 257.517 39.0082 257.093 39.7437C256.88 40.112 256.671 40.4749 256.514 40.7457C256.436 40.8811 256.371 40.9935 256.326 41.072C256.303 41.1113 256.285 41.1422 256.273 41.1632C256.267 41.1737 256.262 41.1819 256.259 41.1874C256.257 41.1902 256.256 41.1925 256.255 41.1941C256.255 41.1949 256.254 41.1959 256.254 41.1968C256.253 41.1971 256.253 41.1982 256.252 41.1994C256.252 41.2002 256.25 41.2024 256.25 41.2038C256.247 41.2082 255.906 41.5398 255.451 41.6591V39.8029ZM256.357 37.3132C256.368 37.2907 256.4 37.2181 256.43 37.1511L258.126 37.9054C258.098 37.969 258.062 38.0495 258.048 38.0798L256.357 37.3132ZM256.43 37.1511C256.443 37.1221 256.457 37.085 256.477 37.0276L258.227 37.6478C258.202 37.7189 258.168 37.8098 258.126 37.9054L256.43 37.1511ZM256.477 37.0278C257.106 35.2532 258.688 34.1309 260.569 34.1309V35.9871C259.477 35.9871 258.594 36.6111 258.227 37.6476L256.477 37.0278ZM260.569 34.1309C263.082 34.1309 264.999 36.3219 264.999 38.8558H263.143C263.143 37.2026 261.918 35.9871 260.569 35.9871V34.1309ZM264.999 38.8558L264.999 44.2673L263.143 44.2673L263.143 38.8558L264.999 38.8558ZM264.999 44.2673C264.999 44.7762 264.799 45.2596 264.44 45.6199L263.126 44.3086C263.133 44.3013 263.137 44.295 263.139 44.2902C263.141 44.2853 263.143 44.2781 263.143 44.2673H264.999ZM264.439 45.6205C264.079 45.9808 263.595 46.1808 263.086 46.1808V44.3246C263.097 44.3246 263.104 44.3227 263.109 44.3207C263.113 44.3187 263.119 44.3153 263.127 44.308L264.439 45.6205ZM262.599 44.4623L262.599 44.4623L263.572 46.0431L263.572 46.0432L262.599 44.4623ZM260.569 36.5107C259.687 36.5107 259.018 36.9827 258.72 37.8227L256.971 37.2029C257.529 35.6256 258.897 34.6545 260.569 34.6545V36.5107ZM258.72 37.8247C258.69 37.9068 258.652 38.0105 258.604 38.1185L256.908 37.3636C256.927 37.3221 256.946 37.2723 256.971 37.2009L258.72 37.8247ZM258.604 38.119C258.561 38.2143 258.526 38.2948 258.499 38.3493C258.482 38.3832 258.454 38.4353 258.415 38.4931C258.374 38.5517 258.335 38.5958 258.331 38.5995L256.934 37.3782C256.936 37.3757 256.935 37.3765 256.934 37.3778C256.933 37.3794 256.929 37.3836 256.924 37.3894C256.919 37.3954 256.913 37.4031 256.906 37.4123C256.899 37.4215 256.892 37.4314 256.885 37.4418C256.87 37.4629 256.859 37.4815 256.851 37.4955C256.844 37.5086 256.839 37.5176 256.838 37.5197C256.837 37.5218 256.838 37.5205 256.841 37.5138C256.844 37.5072 256.848 37.4978 256.855 37.4841C256.861 37.4705 256.868 37.4541 256.877 37.4338C256.886 37.4135 256.897 37.3903 256.909 37.3631L258.604 38.119ZM257.026 38.6912L257.022 38.6881L258.236 37.2833L258.239 37.2864L257.026 38.6912ZM258.449 38.4203C258.304 38.6944 257.889 39.4121 256.708 41.4572L255.101 40.5289C256.298 38.4551 256.685 37.7858 256.809 37.5511L258.449 38.4203ZM256.708 41.4579C256.782 41.3295 256.802 41.1747 256.764 41.031L254.97 41.5077C254.882 41.1764 254.929 40.8254 255.101 40.5282L256.708 41.4579ZM256.763 41.0281C256.725 40.8862 256.631 40.7622 256.501 40.6868L255.573 42.2944C255.275 42.1222 255.06 41.8401 254.971 41.5106L256.763 41.0281ZM256.499 40.6858C256.394 40.6251 256.291 40.6255 256.22 40.6446C256.149 40.6637 256.059 40.7152 255.996 40.8233L257.606 41.7472C257.202 42.452 256.277 42.6991 255.575 42.2954L256.499 40.6858ZM255.998 40.8211L256.991 39.1008L258.599 40.0292L257.605 41.7495L255.998 40.8211ZM256.992 39.0998C257.26 38.637 257.807 38.4054 258.332 38.5474L257.847 40.3391C258.142 40.4189 258.449 40.288 258.598 40.0301L256.992 39.0998ZM258.33 38.5468C258.85 38.6863 259.212 39.1581 259.212 39.6962H257.355C257.355 39.9974 257.558 40.2616 257.849 40.3398L258.33 38.5468ZM259.212 39.6962V45.1043H257.355V39.6962H259.212ZM259.212 45.1043C259.212 44.9985 259.172 44.9024 259.108 44.8288C259.044 44.7554 258.931 44.6795 258.774 44.6692L258.652 46.5214C257.871 46.4699 257.355 45.7894 257.355 45.1043H259.212ZM258.762 44.6685C258.652 44.6627 258.518 44.7028 258.416 44.8045L259.728 46.1181C259.435 46.4106 259.046 46.5423 258.664 46.5221L258.762 44.6685ZM258.416 44.805C258.328 44.8931 258.279 45.0138 258.279 45.1348H260.135C260.135 45.5034 259.99 45.8556 259.728 46.1176L258.416 44.805ZM258.279 45.1348V41.5978H260.135V45.1348H258.279ZM258.279 41.5978C258.279 40.9406 258.812 40.4078 259.469 40.4078V42.264C259.837 42.264 260.135 41.9657 260.135 41.5978H258.279ZM259.469 40.4078C260.126 40.4078 260.659 40.94 260.659 41.5978H258.803C258.803 41.9659 259.101 42.264 259.469 42.264V40.4078ZM260.659 41.5978L260.659 45.9388L258.802 45.9387L258.803 41.5978L260.659 41.5978ZM260.659 45.9387C260.659 45.6807 260.45 45.4723 260.192 45.4723V47.3285C259.425 47.3285 258.802 46.7058 258.802 45.9387H260.659ZM260.192 45.4723C260.071 45.4723 259.951 45.521 259.863 45.6087L261.175 46.9225C260.913 47.184 260.56 47.3285 260.192 47.3285V45.4723ZM259.862 45.6099C259.774 45.6978 259.726 45.818 259.726 45.9387H261.582C261.582 46.3068 261.437 46.6591 261.176 46.9212L259.862 45.6099ZM259.726 45.9387V41.5978H261.582V45.9387H259.726ZM259.726 41.5978C259.726 40.941 260.258 40.4078 260.916 40.4078V42.264C261.284 42.264 261.582 41.9653 261.582 41.5978H259.726ZM260.916 40.4078C261.573 40.4078 262.106 40.94 262.106 41.5978H260.249C260.249 41.9659 260.548 42.264 260.916 42.264V40.4078ZM262.106 41.5978L262.105 45.0941L260.249 45.0941L260.249 41.5977L262.106 41.5978ZM262.105 45.0941V45.1348H260.249V45.0941H262.105ZM262.105 45.1348C262.105 44.8761 261.897 44.6681 261.639 44.6681V46.5243C260.872 46.5243 260.249 45.9021 260.249 45.1348H262.105ZM261.639 44.6681C261.516 44.6681 261.396 44.7183 261.311 44.8035L262.621 46.1184C262.36 46.3781 262.01 46.5243 261.639 46.5243V44.6681ZM261.31 44.8041C261.222 44.8927 261.173 45.0138 261.173 45.1346H263.029C263.029 45.5031 262.884 45.8557 262.622 46.1178L261.31 44.8041ZM261.173 45.1346V41.5976H263.029V45.1346H261.173ZM261.173 41.5976C261.173 40.9408 261.705 40.4076 262.363 40.4076V42.2638C262.731 42.2638 263.029 41.9652 263.029 41.5976H261.173ZM262.363 40.4076C263.02 40.4076 263.553 40.9399 263.553 41.5976H261.697C261.697 41.9658 261.995 42.2638 262.363 42.2638V40.4076ZM263.553 41.5977L263.552 44.2675L261.696 44.2673L261.697 41.5975L263.553 41.5977ZM263.552 44.2674C263.552 44.01 263.344 43.8011 263.086 43.8011V45.6573C262.318 45.6573 261.696 45.0342 261.696 44.2674H263.552ZM263.086 43.8011C262.964 43.8011 262.844 43.8504 262.757 43.9375L264.068 45.2513C263.807 45.5119 263.455 45.6573 263.086 45.6573V43.8011ZM262.756 43.9382C262.668 44.0265 262.619 44.1471 262.619 44.2674H264.475C264.475 44.635 264.331 44.9878 264.069 45.2507L262.756 43.9382ZM262.619 44.2674L262.619 38.8559L264.476 38.856L264.475 44.2674L262.619 44.2674ZM262.619 38.8559C262.619 37.4792 261.618 36.5107 260.569 36.5107V34.6545C262.805 34.6545 264.476 36.6232 264.476 38.8559H262.619ZM259.677 35.3277L259.677 35.3276L261.462 35.8375L261.462 35.8376L259.677 35.3277Z" fill="#4CAF4F" mask="url(#path-4-inside-1_41_1798)"/>
<path d="M254.604 50.2276C254.479 50.3024 254.319 50.2621 254.244 50.1379C254.17 50.014 254.21 49.8531 254.334 49.7786M254.604 50.2276L256.866 47.1831C257.085 47.0518 257.373 47.1036 257.508 47.2986M254.604 50.2276L257.637 48.4081H257.637L257.637 48.408M254.604 50.2276L258.801 48.7863C258.907 48.7227 258.982 48.622 259.012 48.5024M254.334 49.7786L257.367 47.9591C257.473 47.8955 257.548 47.7946 257.578 47.6754M254.334 49.7786L254.365 49.8298L254.469 50.0032L254.469 50.0035L254.516 50.0816L254.573 50.1766L254.573 50.1765L254.573 50.1765L254.573 50.1763M254.334 49.7786L254.365 49.8298M257.578 47.6754C257.611 47.5446 257.586 47.4107 257.508 47.2986M257.578 47.6754L257.653 47.6942L257.646 47.5403C257.641 47.4344 257.61 47.3404 257.557 47.2648L257.557 47.2646L257.508 47.2986M257.578 47.6754L257.653 47.6942L257.66 47.853L257.508 47.9441H257.508L257.398 48.0102L257.398 48.0102L257.398 48.0102L254.365 49.8297M257.508 47.2986L257.557 47.2646L255.318 51.4171C255.413 51.3598 255.444 51.2359 255.387 51.1398C255.329 51.0444 255.205 51.0131 255.109 51.0704L258.142 49.251C258.212 49.2092 258.285 49.1776 258.36 49.1559L258.83 48.8347L258.83 48.8346L258.856 48.817C258.966 48.7416 259.039 48.6372 259.069 48.517L259.069 48.5169L259.012 48.5024M254.365 49.8297C254.46 49.7727 254.585 49.8036 254.642 49.899C254.642 49.8992 254.642 49.8995 254.643 49.8997C254.7 49.9957 254.668 50.1192 254.573 50.1763M254.365 49.8297C254.365 49.8297 254.365 49.8298 254.365 49.8298M254.365 49.8297L254.365 49.8298M254.573 50.1763L257.606 48.3571L257.606 48.357L257.606 48.3569C257.606 48.3569 257.606 48.3568 257.606 48.3568L257.637 48.4072L257.637 48.4074L257.637 48.408M254.573 50.1763L254.469 50.0034L254.469 50.003L254.434 49.9445L254.365 49.8298M257.637 48.408V48.3375C257.696 48.2992 257.749 48.2547 257.797 48.2052L258.296 47.9446L258.296 47.9446L258.324 47.9301C258.404 47.8883 258.485 47.8687 258.562 47.8687C258.603 47.8687 258.646 47.8738 258.69 47.8846C258.69 47.8847 258.69 47.8847 258.69 47.8847C258.69 47.8847 258.69 47.8847 258.691 47.8848L258.788 47.4924M257.637 48.408L258.326 47.9945C258.432 47.9312 258.555 47.9127 258.676 47.9426C258.795 47.9724 258.896 48.0472 258.959 48.153C259.023 48.2589 259.041 48.383 259.012 48.5024M258.788 47.4924C258.788 47.4924 258.788 47.4924 258.788 47.4924M258.788 47.4924C259.027 47.5521 259.231 47.7031 259.357 47.9141L259.408 47.8835M258.788 47.4924L258.803 47.4345M258.788 47.4924L258.69 47.8847C258.826 47.9186 258.938 48.002 259.01 48.1221C259.01 48.1222 259.011 48.1223 259.011 48.1223C259.011 48.1223 259.011 48.1223 259.011 48.1224C259.083 48.2431 259.103 48.3815 259.069 48.5167L259.069 48.5169L259.012 48.5024M258.788 47.4924C258.788 47.4924 258.788 47.4923 258.788 47.4923L258.787 47.4922C258.716 47.4744 258.643 47.4653 258.571 47.4646M258.788 47.4924L258.803 47.4345M258.351 49.5977L258.612 49.4408L258.882 49.5999C258.963 49.6475 259.024 49.7072 259.065 49.7762L259.065 49.7764C259.065 49.7765 259.065 49.7766 259.065 49.7767L259.014 49.8073M258.351 49.5977L259.124 50.1713C259.158 50.0356 259.138 49.8973 259.065 49.7767L259.014 49.8073M258.351 49.5977L258.381 49.6489M258.351 49.5977L258.351 49.5977L258.381 49.6489M259.014 49.8073C258.883 49.589 258.599 49.518 258.381 49.6489M259.014 49.8073C259.078 49.9131 259.097 50.0374 259.067 50.1569L258.381 49.6489M259.457 49.527C259.459 49.5306 259.461 49.5342 259.463 49.5379L259.457 49.527ZM259.457 49.527C259.441 49.5392 259.425 49.5512 259.409 49.5628C259.41 49.5645 259.411 49.5663 259.412 49.5681L259.457 49.527ZM259.384 48.8192C259.418 48.7551 259.444 48.6867 259.462 48.615L259.384 48.8192ZM259.384 48.8192C259.401 48.8296 259.418 48.8403 259.434 48.8514C259.471 48.7821 259.5 48.7078 259.52 48.6293C259.583 48.3743 259.544 48.1095 259.408 47.8835M259.384 48.8192L259.462 48.6149C259.522 48.3757 259.484 48.1254 259.358 47.9145L259.357 47.9142C259.357 47.9142 259.357 47.9141 259.357 47.9141L259.408 47.8835M259.408 47.8835C259.273 47.6578 259.058 47.4983 258.803 47.4345M258.803 47.4345L258.566 47.4046M258.566 47.4046C258.568 47.4246 258.569 47.4447 258.571 47.4646M258.566 47.4046C258.564 47.4046 258.563 47.4046 258.562 47.4046C258.405 47.4046 258.251 47.4448 258.109 47.5188M258.566 47.4046L258.109 47.5188M258.571 47.4646C258.572 47.4755 258.572 47.4864 258.573 47.4972L258.562 47.4977L258.274 47.5111M258.571 47.4646C258.568 47.4646 258.565 47.4646 258.562 47.4646C258.464 47.4647 258.367 47.4804 258.274 47.5111M258.274 47.5111L258.109 47.5188M258.274 47.5111C258.227 47.5267 258.18 47.5463 258.136 47.5696C258.119 47.5781 258.103 47.587 258.088 47.5965L258.087 47.5966L258.054 47.6164M258.109 47.5188L257.845 47.7423L257.845 47.7422L258.028 47.7881C258.028 47.7882 258.028 47.7882 258.028 47.7882C258.042 47.7312 258.051 47.6737 258.054 47.6164M258.109 47.5188L258.038 47.383M258.109 47.5188C258.102 47.3607 258.06 47.205 257.98 47.066C257.962 47.0741 257.944 47.0825 257.926 47.0913M258.054 47.6164C258.056 47.5846 258.057 47.5529 258.055 47.5213C258.053 47.4747 258.047 47.4285 258.038 47.383M258.054 47.6164L258.038 47.383M258.038 47.383L257.894 47.1074C257.905 47.1019 257.915 47.0966 257.926 47.0913M258.038 47.383L257.89 47.0344C257.902 47.053 257.915 47.072 257.926 47.0913M258.038 47.383C258.018 47.281 257.98 47.1825 257.926 47.0913M259.118 49.2002L259.197 49.0657C259.163 49.0979 259.126 49.1275 259.086 49.1544C259.071 49.1647 259.056 49.1746 259.04 49.1841L259.04 49.1842L259.006 49.2044L259.118 49.2002ZM251.707 47.0406L251.654 47.0128C251.644 47.0303 251.62 47.0738 251.585 47.138C251.576 47.1539 251.566 47.1711 251.556 47.1895C251.574 47.1986 251.593 47.2065 251.611 47.2134C251.642 47.1569 251.674 47.0993 251.707 47.0406ZM255.854 52.3112C255.854 52.3112 255.854 52.3113 255.854 52.3113L255.854 52.3112Z" fill="#4CAF4F" stroke="#4CAF4F" stroke-width="0.928093"/>
<path d="M267.555 47.8767L267.555 47.8768L267.555 47.8767ZM267.555 47.8767C267.458 47.7026 267.462 47.4881 267.565 47.3164L267.555 47.8767ZM261.814 47.4645C261.741 47.4651 261.668 47.4743 261.596 47.4923L261.814 47.4645ZM261.814 47.4645C261.815 47.4445 261.817 47.4246 261.819 47.4046L261.814 47.4645ZM267.138 48.2022L267.098 48.1312L267.138 48.2022ZM266.02 49.8297C266.019 49.8296 266.019 49.8296 266.019 49.8295L266.019 49.8296L266.02 49.8297ZM264.531 52.3116C264.531 52.3116 264.53 52.3115 264.53 52.3114L264.531 52.3116ZM264.53 52.3113L264.53 52.3114L264.53 52.3113Z" fill="#4CAF4F" stroke="#4CAF4F" stroke-width="0.928093"/>
<g clip-path="url(#clip3_41_1798)">
<path d="M288.863 41.5084V39.1483L294.781 29.8255H296.815V33.0923H295.611L291.881 38.996V39.1068H300.29V41.5084H288.863ZM295.667 44V40.7886L295.722 39.7435V29.8255H298.532V44H295.667ZM307.727 44.1938C306.998 44.1892 306.294 44.0669 305.616 43.827C304.942 43.587 304.338 43.1971 303.802 42.6573C303.267 42.1174 302.843 41.4023 302.529 40.5117C302.22 39.6212 302.065 38.5277 302.065 37.2311C302.07 36.0407 302.206 34.9771 302.473 34.0405C302.746 33.0992 303.133 32.301 303.636 31.6458C304.144 30.9906 304.751 30.4922 305.457 30.1508C306.162 29.8047 306.954 29.6317 307.83 29.6317C308.776 29.6317 309.612 29.8163 310.336 30.1854C311.06 30.5499 311.642 31.0459 312.08 31.6734C312.523 32.301 312.791 33.0046 312.883 33.7844H309.928C309.812 33.2907 309.57 32.9031 309.201 32.6216C308.832 32.3402 308.375 32.1994 307.83 32.1994C306.908 32.1994 306.206 32.6009 305.726 33.4037C305.251 34.2066 305.009 35.2978 305 36.6774H305.097C305.309 36.2575 305.595 35.9 305.955 35.6047C306.319 35.3047 306.732 35.0763 307.194 34.9195C307.66 34.758 308.151 34.6772 308.668 34.6772C309.508 34.6772 310.255 34.8756 310.91 35.2724C311.566 35.6646 312.082 36.2045 312.461 36.892C312.839 37.5795 313.028 38.3662 313.028 39.2521C313.028 40.2118 312.804 41.0654 312.357 41.8129C311.914 42.5604 311.293 43.1464 310.495 43.5709C309.701 43.9908 308.779 44.1984 307.727 44.1938ZM307.713 41.8406C308.174 41.8406 308.587 41.7299 308.952 41.5084C309.316 41.2869 309.602 40.987 309.81 40.6086C310.018 40.2303 310.121 39.8058 310.121 39.3351C310.121 38.8645 310.018 38.4423 309.81 38.0686C309.607 37.6948 309.325 37.3972 308.966 37.1758C308.606 36.9543 308.195 36.8435 307.734 36.8435C307.388 36.8435 307.067 36.9081 306.772 37.0373C306.481 37.1665 306.225 37.3465 306.003 37.5772C305.786 37.8079 305.616 38.0755 305.491 38.38C305.367 38.6799 305.304 39.0006 305.304 39.3421C305.304 39.7989 305.408 40.2164 305.616 40.5948C305.828 40.9732 306.114 41.2754 306.474 41.5015C306.838 41.7276 307.251 41.8406 307.713 41.8406ZM317.795 42.0621L317.719 42.8234C317.659 43.4325 317.544 44.0392 317.373 44.6437C317.207 45.2527 317.032 45.8041 316.847 46.2978C316.667 46.7915 316.522 47.1791 316.411 47.4606H314.501C314.57 47.1883 314.665 46.8077 314.784 46.3186C314.904 45.8341 315.017 45.2896 315.124 44.6852C315.23 44.0807 315.297 43.4648 315.324 42.8372L315.359 42.0621H317.795ZM325.246 44.1938C324.212 44.1938 323.292 44.0161 322.484 43.6609C321.681 43.301 321.047 42.8073 320.581 42.1797C320.12 41.5476 319.882 40.8186 319.868 39.9927H322.886C322.904 40.3387 323.017 40.6432 323.225 40.9062C323.437 41.1646 323.719 41.3654 324.069 41.5084C324.42 41.6514 324.814 41.7229 325.253 41.7229C325.71 41.7229 326.113 41.6422 326.464 41.4807C326.815 41.3192 327.089 41.0954 327.288 40.8094C327.486 40.5233 327.585 40.1934 327.585 39.8196C327.585 39.4413 327.479 39.1068 327.267 38.8161C327.059 38.5208 326.759 38.2901 326.367 38.1239C325.979 37.9578 325.518 37.8748 324.983 37.8748H323.661V35.6739H324.983C325.435 35.6739 325.834 35.5954 326.18 35.4385C326.531 35.2817 326.803 35.0648 326.997 34.788C327.191 34.5065 327.288 34.1789 327.288 33.8052C327.288 33.4499 327.202 33.1384 327.031 32.8708C326.865 32.5986 326.63 32.3863 326.325 32.2341C326.026 32.0818 325.675 32.0057 325.273 32.0057C324.867 32.0057 324.496 32.0795 324.159 32.2271C323.822 32.3702 323.552 32.5755 323.349 32.8431C323.146 33.1107 323.038 33.4245 323.024 33.7844H320.152C320.166 32.9677 320.399 32.2479 320.851 31.625C321.303 31.0021 321.912 30.5153 322.678 30.1646C323.449 29.8093 324.318 29.6317 325.287 29.6317C326.266 29.6317 327.121 29.8093 327.855 30.1646C328.589 30.5199 329.159 30.9998 329.565 31.6042C329.975 32.2041 330.178 32.8777 330.174 33.6252C330.178 34.4188 329.931 35.081 329.433 35.6116C328.939 36.1422 328.296 36.479 327.502 36.6221V36.7328C328.545 36.8666 329.338 37.2288 329.883 37.8194C330.432 38.4054 330.704 39.139 330.7 40.0203C330.704 40.8278 330.471 41.5453 330.001 42.1728C329.535 42.8003 328.891 43.294 328.07 43.6539C327.248 44.0138 326.307 44.1938 325.246 44.1938ZM332.854 44V41.8406L337.899 37.1688C338.328 36.7536 338.688 36.3798 338.979 36.0476C339.274 35.7154 339.498 35.3901 339.65 35.0717C339.803 34.7487 339.879 34.4004 339.879 34.0266C339.879 33.6114 339.784 33.2538 339.595 32.9539C339.406 32.6493 339.147 32.4163 338.82 32.2548C338.492 32.0887 338.121 32.0057 337.706 32.0057C337.272 32.0057 336.894 32.0933 336.571 32.2687C336.248 32.444 335.998 32.6955 335.823 33.0231C335.648 33.3507 335.56 33.7406 335.56 34.1927H332.715C332.715 33.2653 332.925 32.4601 333.345 31.7773C333.765 31.0944 334.353 30.5661 335.11 30.1923C335.867 29.8186 336.739 29.6317 337.726 29.6317C338.741 29.6317 339.625 29.8117 340.377 30.1716C341.134 30.5268 341.722 31.0205 342.142 31.6527C342.562 32.2848 342.772 33.0092 342.772 33.8259C342.772 34.3612 342.666 34.8895 342.453 35.4109C342.246 35.9323 341.874 36.5113 341.339 37.1481C340.804 37.7802 340.05 38.5392 339.076 39.4251L337.007 41.453V41.5499H342.959V44H332.854ZM350.418 44.1938C349.352 44.1938 348.404 44.0208 347.573 43.6747C346.747 43.324 346.099 42.8465 345.629 42.242C345.158 41.6376 344.923 40.9524 344.923 40.1864C344.923 39.5958 345.056 39.0537 345.324 38.56C345.596 38.0617 345.965 37.6487 346.431 37.3211C346.897 36.9889 347.419 36.7766 347.996 36.6843V36.5875C347.239 36.4352 346.625 36.0684 346.155 35.487C345.684 34.901 345.449 34.2204 345.449 33.4453C345.449 32.7116 345.663 32.0587 346.092 31.4866C346.521 30.9098 347.11 30.4576 347.857 30.13C348.609 29.7978 349.463 29.6317 350.418 29.6317C351.373 29.6317 352.224 29.7978 352.972 30.13C353.724 30.4622 354.315 30.9167 354.744 31.4935C355.173 32.0656 355.39 32.7162 355.394 33.4453C355.39 34.225 355.15 34.9056 354.675 35.487C354.199 36.0684 353.59 36.4352 352.847 36.5875V36.6843C353.415 36.7766 353.929 36.9889 354.391 37.3211C354.857 37.6487 355.226 38.0617 355.498 38.56C355.775 39.0537 355.916 39.5958 355.92 40.1864C355.916 40.9524 355.678 41.6376 355.207 42.242C354.737 42.8465 354.086 43.324 353.256 43.6747C352.43 44.0208 351.484 44.1938 350.418 44.1938ZM350.418 41.9929C350.893 41.9929 351.309 41.9075 351.664 41.7368C352.019 41.5614 352.296 41.3215 352.494 41.017C352.697 40.7078 352.799 40.3526 352.799 39.9511C352.799 39.5405 352.695 39.1783 352.487 38.8645C352.28 38.5461 351.998 38.297 351.643 38.117C351.288 37.9325 350.879 37.8402 350.418 37.8402C349.961 37.8402 349.553 37.9325 349.193 38.117C348.833 38.297 348.549 38.5461 348.342 38.8645C348.139 39.1783 348.037 39.5405 348.037 39.9511C348.037 40.3526 348.136 40.7078 348.335 41.017C348.533 41.3215 348.812 41.5614 349.172 41.7368C349.532 41.9075 349.947 41.9929 350.418 41.9929ZM350.418 35.66C350.815 35.66 351.168 35.5793 351.477 35.4178C351.786 35.2563 352.028 35.0325 352.204 34.7464C352.379 34.4604 352.467 34.1304 352.467 33.7567C352.467 33.3876 352.379 33.0646 352.204 32.7877C352.028 32.5063 351.788 32.2871 351.484 32.1302C351.179 31.9687 350.824 31.888 350.418 31.888C350.017 31.888 349.661 31.9687 349.352 32.1302C349.043 32.2871 348.801 32.5063 348.625 32.7877C348.455 33.0646 348.369 33.3876 348.369 33.7567C348.369 34.1304 348.457 34.4604 348.632 34.7464C348.808 35.0325 349.05 35.2563 349.359 35.4178C349.668 35.5793 350.021 35.66 350.418 35.66Z" fill="#4D4D4D"/>
<path d="M295.332 53.9003V62H294.383L289.969 55.6405H289.89V62H288.91V53.9003H289.859L294.288 60.2756H294.367V53.9003H295.332ZM299.715 62.1266C299.13 62.1266 298.625 61.9974 298.201 61.739C297.779 61.4779 297.453 61.1141 297.224 60.6474C296.997 60.1781 296.884 59.6323 296.884 59.0101C296.884 58.3878 296.997 57.8394 297.224 57.3648C297.453 56.8876 297.772 56.5158 298.181 56.2495C298.592 55.9806 299.072 55.8461 299.621 55.8461C299.937 55.8461 300.249 55.8988 300.558 56.0043C300.866 56.1098 301.147 56.2812 301.4 56.5185C301.653 56.7531 301.855 57.0642 302.005 57.4518C302.156 57.8394 302.231 58.3166 302.231 58.8835V59.279H297.548V58.4722H301.282C301.282 58.1294 301.213 57.8236 301.076 57.5546C300.941 57.2857 300.749 57.0735 300.498 56.9179C300.251 56.7623 299.958 56.6846 299.621 56.6846C299.249 56.6846 298.927 56.7768 298.655 56.9614C298.387 57.1433 298.18 57.3806 298.035 57.6733C297.89 57.966 297.817 58.2797 297.817 58.6146V59.1524C297.817 59.6112 297.896 60.0001 298.054 60.3192C298.215 60.6355 298.438 60.8768 298.723 61.0429C299.007 61.2064 299.338 61.2881 299.715 61.2881C299.961 61.2881 300.182 61.2538 300.38 61.1853C300.58 61.1141 300.753 61.0086 300.898 60.8689C301.043 60.7265 301.155 60.5499 301.234 60.3389L302.136 60.592C302.041 60.8979 301.881 61.1668 301.657 61.3988C301.433 61.6282 301.156 61.8075 300.827 61.9367C300.497 62.0633 300.127 62.1266 299.715 62.1266ZM305.027 62L303.176 55.9252H304.157L305.47 60.5762H305.533L306.83 55.9252H307.827L309.108 60.5604H309.172L310.485 55.9252H311.466L309.615 62H308.697L307.368 57.3332H307.273L305.944 62H305.027ZM317.002 57.2857L316.164 57.523C316.111 57.3833 316.034 57.2475 315.931 57.1156C315.83 56.9812 315.693 56.8704 315.519 56.7834C315.345 56.6964 315.123 56.6529 314.851 56.6529C314.479 56.6529 314.169 56.7386 313.922 56.91C313.676 57.0787 313.554 57.2936 313.554 57.5546C313.554 57.7867 313.638 57.9699 313.807 58.1044C313.976 58.2389 314.239 58.3509 314.598 58.4406L315.5 58.662C316.043 58.7939 316.447 58.9956 316.714 59.2671C316.98 59.5361 317.113 59.8828 317.113 60.3073C317.113 60.6553 317.013 60.9664 316.813 61.2407C316.615 61.5149 316.338 61.7311 315.982 61.8893C315.626 62.0475 315.212 62.1266 314.74 62.1266C314.121 62.1266 313.608 61.9921 313.202 61.7232C312.796 61.4542 312.539 61.0614 312.431 60.5446L313.316 60.3231C313.401 60.65 313.56 60.8953 313.795 61.0587C314.032 61.2222 314.342 61.3039 314.724 61.3039C315.159 61.3039 315.505 61.2116 315.761 61.0271C316.019 60.8399 316.148 60.6158 316.148 60.3547C316.148 60.1438 316.074 59.9672 315.927 59.8248C315.779 59.6798 315.552 59.5717 315.246 59.5005L314.234 59.2632C313.678 59.1314 313.269 58.927 313.008 58.6502C312.75 58.3707 312.62 58.0213 312.62 57.6021C312.62 57.2593 312.717 56.9561 312.909 56.6925C313.104 56.4288 313.369 56.2218 313.704 56.0715C314.042 55.9213 314.424 55.8461 314.851 55.8461C315.452 55.8461 315.924 55.9779 316.267 56.2416C316.612 56.5053 316.857 56.8533 317.002 57.2857Z" fill="#717171"/>
</g>
<path d="M65.8426 166.872V164.088C65.8426 162.611 65.2559 161.195 64.2116 160.15C63.1673 159.106 61.7509 158.519 60.274 158.519H58.8819C58.5127 158.519 58.1586 158.373 57.8975 158.112C57.6364 157.851 57.4897 157.496 57.4897 157.127V150.167C57.4897 149.428 57.1964 148.72 56.6743 148.198C56.1521 147.676 55.4439 147.382 54.7055 147.382C53.967 147.382 53.2588 147.676 52.7367 148.198C52.2145 148.72 51.9212 149.428 51.9212 150.167V162.696L48.5801 158.241C48.3207 157.895 47.9844 157.614 47.5978 157.421C47.2112 157.228 46.7849 157.127 46.3526 157.127H45.7484C44.5442 157.127 43.5684 158.103 43.5684 159.307C43.5684 159.703 43.6756 160.091 43.8788 160.429L47.7448 166.872M54.7055 143.206V141.814V143.206ZM63.0583 151.559H64.4504H63.0583ZM44.9605 151.559H46.3526H44.9605ZM48.2223 145.076L47.238 144.091L48.2223 145.076ZM61.1887 145.076L62.1729 144.091L61.1887 145.076Z" fill="#4CAF4F"/>
<path d="M65.8426 166.872V164.088C65.8426 162.611 65.2559 161.195 64.2116 160.15C63.1673 159.106 61.7509 158.519 60.274 158.519H58.8819C58.5127 158.519 58.1586 158.373 57.8975 158.112C57.6364 157.851 57.4897 157.496 57.4897 157.127V150.167C57.4897 149.428 57.1964 148.72 56.6743 148.198C56.1521 147.676 55.4439 147.382 54.7055 147.382V147.382C53.967 147.382 53.2588 147.676 52.7367 148.198C52.2145 148.72 51.9212 149.428 51.9212 150.167V162.696L48.5801 158.241C48.3207 157.895 47.9844 157.614 47.5978 157.421C47.2112 157.228 46.7849 157.127 46.3526 157.127H45.7484C44.5442 157.127 43.5684 158.103 43.5684 159.307C43.5684 159.703 43.6756 160.091 43.8788 160.429L47.7448 166.872M54.7055 143.206V141.814M63.0583 151.559H64.4504M44.9605 151.559H46.3526M48.2223 145.076L47.238 144.091M61.1887 145.076L62.1729 144.091" stroke="#4CAF4F" stroke-width="1.39214" stroke-linecap="round" stroke-linejoin="round"/>
<g clip-path="url(#clip4_41_1798)">
<path d="M88.9855 153.037C87.9196 153.037 86.9714 152.864 86.1409 152.517C85.315 152.167 84.6667 151.689 84.1961 151.085C83.7254 150.48 83.4901 149.795 83.4901 149.029C83.4901 148.439 83.6239 147.896 83.8915 147.403C84.1638 146.904 84.5329 146.491 84.9989 146.164C85.4649 145.832 85.9863 145.619 86.5631 145.527V145.43C85.8064 145.278 85.1927 144.911 84.7221 144.33C84.2514 143.744 84.0161 143.063 84.0161 142.288C84.0161 141.554 84.2307 140.901 84.6598 140.329C85.0889 139.753 85.6772 139.3 86.4247 138.973C87.1768 138.641 88.0304 138.474 88.9855 138.474C89.9406 138.474 90.7919 138.641 91.5394 138.973C92.2915 139.305 92.8821 139.76 93.3112 140.336C93.7403 140.908 93.9572 141.559 93.9618 142.288C93.9572 143.068 93.7172 143.748 93.242 144.33C92.7667 144.911 92.1577 145.278 91.4148 145.43V145.527C91.9823 145.619 92.4968 145.832 92.9582 146.164C93.4243 146.491 93.7934 146.904 94.0656 147.403C94.3425 147.896 94.4832 148.439 94.4878 149.029C94.4832 149.795 94.2456 150.48 93.7749 151.085C93.3043 151.689 92.6537 152.167 91.8232 152.517C90.9972 152.864 90.0513 153.037 88.9855 153.037ZM88.9855 150.836C89.4607 150.836 89.876 150.75 90.2313 150.58C90.5866 150.404 90.8634 150.164 91.0618 149.86C91.2649 149.551 91.3664 149.195 91.3664 148.794C91.3664 148.383 91.2626 148.021 91.0549 147.707C90.8473 147.389 90.5658 147.14 90.2105 146.96C89.8553 146.775 89.4469 146.683 88.9855 146.683C88.5287 146.683 88.1203 146.775 87.7605 146.96C87.4006 147.14 87.1168 147.389 86.9091 147.707C86.7061 148.021 86.6046 148.383 86.6046 148.794C86.6046 149.195 86.7038 149.551 86.9022 149.86C87.1006 150.164 87.3798 150.404 87.7397 150.58C88.0996 150.75 88.5149 150.836 88.9855 150.836ZM88.9855 144.503C89.3823 144.503 89.7353 144.422 90.0444 144.261C90.3536 144.099 90.5958 143.875 90.7711 143.589C90.9465 143.303 91.0342 142.973 91.0342 142.599C91.0342 142.23 90.9465 141.907 90.7711 141.631C90.5958 141.349 90.3559 141.13 90.0513 140.973C89.7468 140.812 89.3915 140.731 88.9855 140.731C88.5841 140.731 88.2288 140.812 87.9196 140.973C87.6105 141.13 87.3683 141.349 87.1929 141.631C87.0222 141.907 86.9368 142.23 86.9368 142.599C86.9368 142.973 87.0245 143.303 87.1998 143.589C87.3752 143.875 87.6174 144.099 87.9266 144.261C88.2357 144.422 88.5887 144.503 88.9855 144.503ZM96.5832 152.843V150.683L101.629 146.012C102.058 145.596 102.418 145.223 102.708 144.89C103.004 144.558 103.227 144.233 103.38 143.914C103.532 143.592 103.608 143.243 103.608 142.869C103.608 142.454 103.514 142.097 103.324 141.797C103.135 141.492 102.877 141.259 102.549 141.098C102.222 140.931 101.85 140.848 101.435 140.848C101.001 140.848 100.623 140.936 100.3 141.111C99.9768 141.287 99.7277 141.538 99.5524 141.866C99.377 142.193 99.2893 142.583 99.2893 143.036H96.4448C96.4448 142.108 96.6547 141.303 97.0746 140.62C97.4945 139.937 98.0828 139.409 98.8395 139.035C99.5962 138.661 100.468 138.474 101.456 138.474C102.471 138.474 103.354 138.654 104.106 139.014C104.863 139.37 105.451 139.863 105.871 140.495C106.291 141.128 106.501 141.852 106.501 142.669C106.501 143.204 106.395 143.732 106.183 144.254C105.975 144.775 105.604 145.354 105.069 145.991C104.533 146.623 103.779 147.382 102.805 148.268L100.736 150.296V150.393H106.688V152.843H96.5832ZM114.147 153.037C113.081 153.037 112.133 152.864 111.303 152.517C110.477 152.167 109.829 151.689 109.358 151.085C108.887 150.48 108.652 149.795 108.652 149.029C108.652 148.439 108.786 147.896 109.053 147.403C109.326 146.904 109.695 146.491 110.161 146.164C110.627 145.832 111.148 145.619 111.725 145.527V145.43C110.968 145.278 110.355 144.911 109.884 144.33C109.413 143.744 109.178 143.063 109.178 142.288C109.178 141.554 109.392 140.901 109.822 140.329C110.251 139.753 110.839 139.3 111.586 138.973C112.339 138.641 113.192 138.474 114.147 138.474C115.102 138.474 115.954 138.641 116.701 138.973C117.453 139.305 118.044 139.76 118.473 140.336C118.902 140.908 119.119 141.559 119.124 142.288C119.119 143.068 118.879 143.748 118.404 144.33C117.929 144.911 117.32 145.278 116.577 145.43V145.527C117.144 145.619 117.659 145.832 118.12 146.164C118.586 146.491 118.955 146.904 119.227 147.403C119.504 147.896 119.645 148.439 119.65 149.029C119.645 149.795 119.407 150.48 118.937 151.085C118.466 151.689 117.816 152.167 116.985 152.517C116.159 152.864 115.213 153.037 114.147 153.037ZM114.147 150.836C114.623 150.836 115.038 150.75 115.393 150.58C115.748 150.404 116.025 150.164 116.224 149.86C116.427 149.551 116.528 149.195 116.528 148.794C116.528 148.383 116.424 148.021 116.217 147.707C116.009 147.389 115.728 147.14 115.372 146.96C115.017 146.775 114.609 146.683 114.147 146.683C113.691 146.683 113.282 146.775 112.922 146.96C112.562 147.14 112.279 147.389 112.071 147.707C111.868 148.021 111.766 148.383 111.766 148.794C111.766 149.195 111.866 149.551 112.064 149.86C112.262 150.164 112.542 150.404 112.902 150.58C113.261 150.75 113.677 150.836 114.147 150.836ZM114.147 144.503C114.544 144.503 114.897 144.422 115.206 144.261C115.515 144.099 115.758 143.875 115.933 143.589C116.108 143.303 116.196 142.973 116.196 142.599C116.196 142.23 116.108 141.907 115.933 141.631C115.758 141.349 115.518 141.13 115.213 140.973C114.909 140.812 114.553 140.731 114.147 140.731C113.746 140.731 113.391 140.812 113.081 140.973C112.772 141.13 112.53 141.349 112.355 141.631C112.184 141.907 112.099 142.23 112.099 142.599C112.099 142.973 112.186 143.303 112.362 143.589C112.537 143.875 112.779 144.099 113.088 144.261C113.398 144.422 113.751 144.503 114.147 144.503ZM124.577 150.905L124.501 151.666C124.441 152.275 124.326 152.882 124.155 153.486C123.989 154.096 123.814 154.647 123.629 155.141C123.449 155.634 123.304 156.022 123.193 156.303H121.283C121.352 156.031 121.447 155.65 121.567 155.161C121.687 154.677 121.8 154.132 121.906 153.528C122.012 152.924 122.079 152.308 122.107 151.68L122.141 150.905H124.577ZM131.962 153.037C130.896 153.037 129.948 152.864 129.118 152.517C128.292 152.167 127.644 151.689 127.173 151.085C126.702 150.48 126.467 149.795 126.467 149.029C126.467 148.439 126.601 147.896 126.868 147.403C127.141 146.904 127.51 146.491 127.976 146.164C128.442 145.832 128.963 145.619 129.54 145.527V145.43C128.783 145.278 128.17 144.911 127.699 144.33C127.228 143.744 126.993 143.063 126.993 142.288C126.993 141.554 127.208 140.901 127.637 140.329C128.066 139.753 128.654 139.3 129.402 138.973C130.154 138.641 131.007 138.474 131.962 138.474C132.917 138.474 133.769 138.641 134.516 138.973C135.268 139.305 135.859 139.76 136.288 140.336C136.717 140.908 136.934 141.559 136.939 142.288C136.934 143.068 136.694 143.748 136.219 144.33C135.744 144.911 135.135 145.278 134.392 145.43V145.527C134.959 145.619 135.474 145.832 135.935 146.164C136.401 146.491 136.77 146.904 137.042 147.403C137.319 147.896 137.46 148.439 137.465 149.029C137.46 149.795 137.222 150.48 136.752 151.085C136.281 151.689 135.631 152.167 134.8 152.517C133.974 152.864 133.028 153.037 131.962 153.037ZM131.962 150.836C132.438 150.836 132.853 150.75 133.208 150.58C133.563 150.404 133.84 150.164 134.039 149.86C134.242 149.551 134.343 149.195 134.343 148.794C134.343 148.383 134.239 148.021 134.032 147.707C133.824 147.389 133.543 147.14 133.187 146.96C132.832 146.775 132.424 146.683 131.962 146.683C131.506 146.683 131.097 146.775 130.737 146.96C130.377 147.14 130.094 147.389 129.886 147.707C129.683 148.021 129.581 148.383 129.581 148.794C129.581 149.195 129.681 149.551 129.879 149.86C130.077 150.164 130.357 150.404 130.717 150.58C131.076 150.75 131.492 150.836 131.962 150.836ZM131.962 144.503C132.359 144.503 132.712 144.422 133.021 144.261C133.33 144.099 133.573 143.875 133.748 143.589C133.923 143.303 134.011 142.973 134.011 142.599C134.011 142.23 133.923 141.907 133.748 141.631C133.573 141.349 133.333 141.13 133.028 140.973C132.724 140.812 132.368 140.731 131.962 140.731C131.561 140.731 131.206 140.812 130.896 140.973C130.587 141.13 130.345 141.349 130.17 141.631C129.999 141.907 129.914 142.23 129.914 142.599C129.914 142.973 130.001 143.303 130.177 143.589C130.352 143.875 130.594 144.099 130.903 144.261C131.213 144.422 131.566 144.503 131.962 144.503ZM145 153.037C144.271 153.032 143.567 152.91 142.889 152.67C142.215 152.43 141.611 152.04 141.076 151.5C140.541 150.96 140.116 150.245 139.802 149.355C139.493 148.464 139.339 147.37 139.339 146.074C139.343 144.883 139.479 143.82 139.747 142.883C140.019 141.942 140.407 141.144 140.91 140.489C141.417 139.833 142.024 139.335 142.73 138.994C143.436 138.648 144.227 138.474 145.104 138.474C146.05 138.474 146.885 138.659 147.609 139.028C148.334 139.393 148.915 139.889 149.353 140.516C149.796 141.144 150.064 141.847 150.156 142.627H147.201C147.086 142.133 146.843 141.746 146.474 141.464C146.105 141.183 145.648 141.042 145.104 141.042C144.181 141.042 143.48 141.444 143 142.246C142.525 143.049 142.282 144.141 142.273 145.52H142.37C142.582 145.1 142.868 144.743 143.228 144.447C143.593 144.148 144.006 143.919 144.467 143.762C144.933 143.601 145.425 143.52 145.941 143.52C146.781 143.52 147.529 143.718 148.184 144.115C148.839 144.507 149.356 145.047 149.734 145.735C150.112 146.422 150.302 147.209 150.302 148.095C150.302 149.055 150.078 149.908 149.63 150.656C149.187 151.403 148.567 151.989 147.769 152.414C146.975 152.834 146.052 153.041 145 153.037ZM144.986 150.683C145.448 150.683 145.861 150.573 146.225 150.351C146.59 150.13 146.876 149.83 147.083 149.451C147.291 149.073 147.395 148.649 147.395 148.178C147.395 147.707 147.291 147.285 147.083 146.911C146.88 146.538 146.599 146.24 146.239 146.019C145.879 145.797 145.468 145.686 145.007 145.686C144.661 145.686 144.34 145.751 144.045 145.88C143.754 146.009 143.498 146.189 143.277 146.42C143.06 146.651 142.889 146.918 142.765 147.223C142.64 147.523 142.578 147.843 142.578 148.185C142.578 148.642 142.681 149.059 142.889 149.438C143.101 149.816 143.387 150.118 143.747 150.344C144.112 150.57 144.525 150.683 144.986 150.683ZM152.987 152.843L158.863 141.215V141.118H152.018V138.668H161.964V141.153L156.081 152.843H152.987Z" fill="#4D4D4D"/>
<path d="M83.0867 163.613V162.743H89.1615V163.613H86.6145V170.843H85.6337V163.613H83.0867ZM92.1356 170.969C91.5872 170.969 91.106 170.839 90.6921 170.578C90.2807 170.317 89.9591 169.952 89.727 169.482C89.4977 169.013 89.383 168.465 89.383 167.837C89.383 167.204 89.4977 166.652 89.727 166.18C89.9591 165.708 90.2807 165.341 90.6921 165.08C91.106 164.819 91.5872 164.689 92.1356 164.689C92.684 164.689 93.1639 164.819 93.5752 165.08C93.9892 165.341 94.3108 165.708 94.5402 166.18C94.7722 166.652 94.8882 167.204 94.8882 167.837C94.8882 168.465 94.7722 169.013 94.5402 169.482C94.3108 169.952 93.9892 170.317 93.5752 170.578C93.1639 170.839 92.684 170.969 92.1356 170.969ZM92.1356 170.131C92.5522 170.131 92.895 170.024 93.1639 169.811C93.4328 169.597 93.6319 169.316 93.7611 168.968C93.8903 168.62 93.9549 168.243 93.9549 167.837C93.9549 167.431 93.8903 167.053 93.7611 166.702C93.6319 166.351 93.4328 166.068 93.1639 165.852C92.895 165.635 92.5522 165.527 92.1356 165.527C91.719 165.527 91.3763 165.635 91.1073 165.852C90.8384 166.068 90.6393 166.351 90.5101 166.702C90.3809 167.053 90.3163 167.431 90.3163 167.837C90.3163 168.243 90.3809 168.62 90.5101 168.968C90.6393 169.316 90.8384 169.597 91.1073 169.811C91.3763 170.024 91.719 170.131 92.1356 170.131ZM98.9549 164.768V165.559H95.8068V164.768H98.9549ZM96.7243 163.313H97.6577V169.103C97.6577 169.366 97.6959 169.564 97.7724 169.696C97.8515 169.825 97.9517 169.912 98.073 169.957C98.1969 169.999 98.3274 170.02 98.4645 170.02C98.5673 170.02 98.6517 170.015 98.7176 170.004C98.7835 169.991 98.8363 169.981 98.8758 169.973L99.0656 170.811C99.0024 170.835 98.914 170.859 98.8007 170.882C98.6873 170.909 98.5436 170.922 98.3696 170.922C98.1059 170.922 97.8475 170.865 97.5944 170.752C97.3439 170.638 97.1356 170.466 96.9695 170.234C96.8061 170.002 96.7243 169.709 96.7243 169.356V163.313ZM102.147 170.985C101.762 170.985 101.412 170.913 101.098 170.768C100.785 170.62 100.536 170.408 100.351 170.131C100.166 169.851 100.074 169.514 100.074 169.118C100.074 168.77 100.143 168.488 100.28 168.272C100.417 168.053 100.6 167.882 100.83 167.758C101.059 167.634 101.312 167.542 101.589 167.481C101.868 167.418 102.149 167.368 102.431 167.331C102.8 167.283 103.1 167.248 103.329 167.224C103.561 167.198 103.73 167.154 103.835 167.093C103.943 167.033 103.997 166.927 103.997 166.777V166.745C103.997 166.355 103.891 166.052 103.677 165.836C103.466 165.62 103.146 165.512 102.716 165.512C102.27 165.512 101.921 165.609 101.668 165.804C101.415 165.999 101.237 166.208 101.134 166.429L100.248 166.113C100.406 165.744 100.617 165.456 100.881 165.25C101.147 165.042 101.437 164.897 101.751 164.815C102.067 164.731 102.379 164.689 102.684 164.689C102.88 164.689 103.104 164.713 103.357 164.76C103.613 164.805 103.859 164.898 104.096 165.041C104.336 165.183 104.535 165.398 104.694 165.686C104.852 165.973 104.931 166.358 104.931 166.84V170.843H103.997V170.02H103.95C103.887 170.152 103.781 170.293 103.634 170.443C103.486 170.594 103.29 170.721 103.044 170.827C102.799 170.932 102.5 170.985 102.147 170.985ZM102.289 170.147C102.658 170.147 102.969 170.074 103.222 169.929C103.478 169.784 103.671 169.597 103.8 169.368C103.932 169.138 103.997 168.897 103.997 168.644V167.79C103.958 167.837 103.871 167.881 103.736 167.92C103.605 167.957 103.452 167.99 103.278 168.019C103.106 168.045 102.939 168.069 102.775 168.09C102.615 168.109 102.484 168.124 102.384 168.138C102.141 168.169 101.915 168.221 101.704 168.292C101.495 168.36 101.327 168.465 101.197 168.604C101.071 168.741 101.008 168.929 101.008 169.166C101.008 169.49 101.127 169.735 101.367 169.901C101.61 170.065 101.917 170.147 102.289 170.147ZM107.568 162.743V170.843H106.634V162.743H107.568ZM119.054 165.274H118.073C118.015 164.992 117.914 164.744 117.769 164.531C117.626 164.317 117.452 164.138 117.247 163.993C117.043 163.845 116.818 163.734 116.57 163.661C116.322 163.587 116.064 163.55 115.795 163.55C115.305 163.55 114.86 163.674 114.462 163.922C114.067 164.169 113.752 164.535 113.517 165.017C113.285 165.5 113.169 166.092 113.169 166.793C113.169 167.494 113.285 168.086 113.517 168.569C113.752 169.051 114.067 169.416 114.462 169.664C114.86 169.912 115.305 170.036 115.795 170.036C116.064 170.036 116.322 169.999 116.57 169.925C116.818 169.851 117.043 169.742 117.247 169.597C117.452 169.449 117.626 169.269 117.769 169.055C117.914 168.839 118.015 168.591 118.073 168.312H119.054C118.98 168.726 118.846 169.096 118.651 169.423C118.455 169.75 118.213 170.028 117.923 170.257C117.633 170.484 117.307 170.657 116.946 170.776C116.587 170.894 116.204 170.954 115.795 170.954C115.104 170.954 114.49 170.785 113.952 170.447C113.414 170.11 112.991 169.63 112.683 169.008C112.374 168.385 112.22 167.647 112.22 166.793C112.22 165.939 112.374 165.2 112.683 164.578C112.991 163.956 113.414 163.476 113.952 163.139C114.49 162.801 115.104 162.632 115.795 162.632C116.204 162.632 116.587 162.692 116.946 162.81C117.307 162.929 117.633 163.103 117.923 163.332C118.213 163.559 118.455 163.836 118.651 164.163C118.846 164.487 118.98 164.858 119.054 165.274ZM120.512 170.843V164.768H121.414V165.686H121.477C121.588 165.385 121.788 165.141 122.078 164.954C122.368 164.767 122.695 164.673 123.059 164.673C123.128 164.673 123.214 164.674 123.316 164.677C123.419 164.68 123.497 164.684 123.55 164.689V165.638C123.518 165.63 123.446 165.618 123.332 165.602C123.221 165.584 123.104 165.575 122.98 165.575C122.685 165.575 122.421 165.637 122.189 165.761C121.96 165.882 121.778 166.051 121.643 166.267C121.512 166.48 121.446 166.724 121.446 166.999V170.843H120.512ZM126.939 170.969C126.391 170.969 125.909 170.839 125.496 170.578C125.084 170.317 124.763 169.952 124.531 169.482C124.301 169.013 124.186 168.465 124.186 167.837C124.186 167.204 124.301 166.652 124.531 166.18C124.763 165.708 125.084 165.341 125.496 165.08C125.909 164.819 126.391 164.689 126.939 164.689C127.487 164.689 127.967 164.819 128.379 165.08C128.793 165.341 129.114 165.708 129.344 166.18C129.576 166.652 129.692 167.204 129.692 167.837C129.692 168.465 129.576 169.013 129.344 169.482C129.114 169.952 128.793 170.317 128.379 170.578C127.967 170.839 127.487 170.969 126.939 170.969ZM126.939 170.131C127.356 170.131 127.698 170.024 127.967 169.811C128.236 169.597 128.435 169.316 128.565 168.968C128.694 168.62 128.758 168.243 128.758 167.837C128.758 167.431 128.694 167.053 128.565 166.702C128.435 166.351 128.236 166.068 127.967 165.852C127.698 165.635 127.356 165.527 126.939 165.527C126.522 165.527 126.18 165.635 125.911 165.852C125.642 166.068 125.443 166.351 125.314 166.702C125.184 167.053 125.12 167.431 125.12 167.837C125.12 168.243 125.184 168.62 125.314 168.968C125.443 169.316 125.642 169.597 125.911 169.811C126.18 170.024 126.522 170.131 126.939 170.131ZM131.116 173.121V164.768H132.018V165.733H132.129C132.197 165.628 132.292 165.493 132.414 165.33C132.538 165.163 132.714 165.016 132.944 164.887C133.176 164.755 133.489 164.689 133.885 164.689C134.396 164.689 134.847 164.817 135.238 165.073C135.628 165.328 135.932 165.691 136.151 166.16C136.37 166.629 136.479 167.183 136.479 167.821C136.479 168.465 136.37 169.022 136.151 169.494C135.932 169.963 135.629 170.327 135.241 170.586C134.854 170.841 134.407 170.969 133.901 170.969C133.511 170.969 133.198 170.905 132.963 170.776C132.729 170.644 132.548 170.495 132.422 170.329C132.295 170.16 132.197 170.02 132.129 169.909H132.05V173.121H131.116ZM132.034 167.805C132.034 168.264 132.101 168.669 132.236 169.02C132.37 169.368 132.567 169.64 132.825 169.838C133.083 170.033 133.4 170.131 133.774 170.131C134.164 170.131 134.49 170.028 134.751 169.822C135.015 169.614 135.212 169.335 135.344 168.984C135.479 168.631 135.546 168.238 135.546 167.805C135.546 167.378 135.48 166.993 135.348 166.651C135.219 166.305 135.023 166.032 134.759 165.832C134.498 165.629 134.17 165.527 133.774 165.527C133.395 165.527 133.075 165.624 132.817 165.816C132.559 166.006 132.364 166.272 132.232 166.615C132.1 166.955 132.034 167.352 132.034 167.805ZM142.143 162.743V170.843H141.162V162.743H142.143ZM144.916 167.188V170.843H143.983V164.768H144.885V165.717H144.964C145.106 165.409 145.322 165.161 145.612 164.974C145.902 164.784 146.277 164.689 146.736 164.689C147.147 164.689 147.507 164.773 147.815 164.942C148.124 165.108 148.364 165.361 148.535 165.701C148.706 166.039 148.792 166.466 148.792 166.983V170.843H147.859V167.046C147.859 166.569 147.735 166.197 147.487 165.931C147.239 165.662 146.899 165.527 146.467 165.527C146.169 165.527 145.902 165.592 145.668 165.721C145.436 165.85 145.252 166.039 145.118 166.287C144.983 166.535 144.916 166.835 144.916 167.188ZM153.203 164.768V165.559H149.928V164.768H153.203ZM150.909 170.843V163.93C150.909 163.582 150.991 163.291 151.154 163.059C151.318 162.827 151.53 162.653 151.791 162.537C152.052 162.421 152.327 162.363 152.618 162.363C152.847 162.363 153.034 162.382 153.179 162.419C153.324 162.456 153.432 162.49 153.503 162.522L153.234 163.328C153.187 163.313 153.121 163.293 153.037 163.269C152.955 163.245 152.847 163.233 152.712 163.233C152.404 163.233 152.181 163.311 152.044 163.467C151.91 163.622 151.842 163.85 151.842 164.151V170.843H150.909ZM156.729 170.969C156.18 170.969 155.699 170.839 155.285 170.578C154.874 170.317 154.552 169.952 154.32 169.482C154.091 169.013 153.976 168.465 153.976 167.837C153.976 167.204 154.091 166.652 154.32 166.18C154.552 165.708 154.874 165.341 155.285 165.08C155.699 164.819 156.18 164.689 156.729 164.689C157.277 164.689 157.757 164.819 158.168 165.08C158.582 165.341 158.904 165.708 159.133 166.18C159.365 166.652 159.481 167.204 159.481 167.837C159.481 168.465 159.365 169.013 159.133 169.482C158.904 169.952 158.582 170.317 158.168 170.578C157.757 170.839 157.277 170.969 156.729 170.969ZM156.729 170.131C157.145 170.131 157.488 170.024 157.757 169.811C158.026 169.597 158.225 169.316 158.354 168.968C158.483 168.62 158.548 168.243 158.548 167.837C158.548 167.431 158.483 167.053 158.354 166.702C158.225 166.351 158.026 166.068 157.757 165.852C157.488 165.635 157.145 165.527 156.729 165.527C156.312 165.527 155.969 165.635 155.7 165.852C155.431 166.068 155.232 166.351 155.103 166.702C154.974 167.053 154.909 167.431 154.909 167.837C154.909 168.243 154.974 168.62 155.103 168.968C155.232 169.316 155.431 169.597 155.7 169.811C155.969 170.024 156.312 170.131 156.729 170.131ZM160.906 170.843V164.768H161.808V165.686H161.871C161.982 165.385 162.182 165.141 162.472 164.954C162.762 164.767 163.089 164.673 163.453 164.673C163.522 164.673 163.607 164.674 163.71 164.677C163.813 164.68 163.891 164.684 163.943 164.689V165.638C163.912 165.63 163.839 165.618 163.726 165.602C163.615 165.584 163.498 165.575 163.374 165.575C163.079 165.575 162.815 165.637 162.583 165.761C162.354 165.882 162.172 166.051 162.037 166.267C161.905 166.48 161.839 166.724 161.839 166.999V170.843H160.906ZM165.05 170.843V164.768H165.952V165.717H166.031C166.157 165.393 166.362 165.141 166.644 164.962C166.926 164.78 167.265 164.689 167.66 164.689C168.061 164.689 168.394 164.78 168.661 164.962C168.93 165.141 169.139 165.393 169.29 165.717H169.353C169.508 165.403 169.742 165.154 170.053 164.97C170.364 164.782 170.737 164.689 171.172 164.689C171.715 164.689 172.16 164.859 172.505 165.199C172.85 165.537 173.023 166.063 173.023 166.777V170.843H172.09V166.777C172.09 166.329 171.967 166.009 171.722 165.816C171.477 165.624 171.188 165.527 170.856 165.527C170.429 165.527 170.098 165.657 169.863 165.915C169.628 166.171 169.511 166.495 169.511 166.888V170.843H168.562V166.682C168.562 166.337 168.45 166.059 168.226 165.848C168.002 165.634 167.713 165.527 167.36 165.527C167.117 165.527 166.89 165.592 166.679 165.721C166.471 165.85 166.302 166.03 166.173 166.259C166.047 166.486 165.983 166.748 165.983 167.046V170.843H165.05ZM176.517 170.985C176.132 170.985 175.783 170.913 175.469 170.768C175.155 170.62 174.906 170.408 174.722 170.131C174.537 169.851 174.445 169.514 174.445 169.118C174.445 168.77 174.513 168.488 174.65 168.272C174.788 168.053 174.971 167.882 175.2 167.758C175.43 167.634 175.683 167.542 175.96 167.481C176.239 167.418 176.52 167.368 176.802 167.331C177.171 167.283 177.47 167.248 177.7 167.224C177.932 167.198 178.101 167.154 178.206 167.093C178.314 167.033 178.368 166.927 178.368 166.777V166.745C178.368 166.355 178.261 166.052 178.048 165.836C177.837 165.62 177.517 165.512 177.087 165.512C176.641 165.512 176.292 165.609 176.039 165.804C175.786 165.999 175.608 166.208 175.505 166.429L174.619 166.113C174.777 165.744 174.988 165.456 175.252 165.25C175.518 165.042 175.808 164.897 176.122 164.815C176.438 164.731 176.749 164.689 177.055 164.689C177.25 164.689 177.474 164.713 177.727 164.76C177.983 164.805 178.23 164.898 178.467 165.041C178.707 165.183 178.906 165.398 179.064 165.686C179.222 165.973 179.301 166.358 179.301 166.84V170.843H178.368V170.02H178.321C178.257 170.152 178.152 170.293 178.004 170.443C177.857 170.594 177.66 170.721 177.415 170.827C177.17 170.932 176.871 170.985 176.517 170.985ZM176.66 170.147C177.029 170.147 177.34 170.074 177.593 169.929C177.849 169.784 178.041 169.597 178.17 169.368C178.302 169.138 178.368 168.897 178.368 168.644V167.79C178.329 167.837 178.242 167.881 178.107 167.92C177.975 167.957 177.822 167.99 177.648 168.019C177.477 168.045 177.31 168.069 177.146 168.09C176.985 168.109 176.855 168.124 176.755 168.138C176.512 168.169 176.285 168.221 176.074 168.292C175.866 168.36 175.697 168.465 175.568 168.604C175.441 168.741 175.378 168.929 175.378 169.166C175.378 169.49 175.498 169.735 175.738 169.901C175.981 170.065 176.288 170.147 176.66 170.147ZM183.647 164.768V165.559H180.499V164.768H183.647ZM181.416 163.313H182.35V169.103C182.35 169.366 182.388 169.564 182.464 169.696C182.544 169.825 182.644 169.912 182.765 169.957C182.889 169.999 183.019 170.02 183.157 170.02C183.259 170.02 183.344 170.015 183.41 170.004C183.476 169.991 183.528 169.981 183.568 169.973L183.758 170.811C183.694 170.835 183.606 170.859 183.493 170.882C183.379 170.909 183.236 170.922 183.062 170.922C182.798 170.922 182.54 170.865 182.286 170.752C182.036 170.638 181.828 170.466 181.662 170.234C181.498 170.002 181.416 169.709 181.416 169.356V163.313ZM185.051 170.843V164.768H185.984V170.843H185.051ZM185.526 163.756C185.344 163.756 185.187 163.694 185.055 163.57C184.926 163.446 184.861 163.297 184.861 163.123C184.861 162.949 184.926 162.8 185.055 162.676C185.187 162.552 185.344 162.49 185.526 162.49C185.708 162.49 185.863 162.552 185.992 162.676C186.124 162.8 186.19 162.949 186.19 163.123C186.19 163.297 186.124 163.446 185.992 163.57C185.863 163.694 185.708 163.756 185.526 163.756ZM190.162 170.969C189.613 170.969 189.132 170.839 188.718 170.578C188.307 170.317 187.985 169.952 187.753 169.482C187.524 169.013 187.409 168.465 187.409 167.837C187.409 167.204 187.524 166.652 187.753 166.18C187.985 165.708 188.307 165.341 188.718 165.08C189.132 164.819 189.613 164.689 190.162 164.689C190.71 164.689 191.19 164.819 191.601 165.08C192.015 165.341 192.337 165.708 192.566 166.18C192.798 166.652 192.914 167.204 192.914 167.837C192.914 168.465 192.798 169.013 192.566 169.482C192.337 169.952 192.015 170.317 191.601 170.578C191.19 170.839 190.71 170.969 190.162 170.969ZM190.162 170.131C190.578 170.131 190.921 170.024 191.19 169.811C191.459 169.597 191.658 169.316 191.787 168.968C191.916 168.62 191.981 168.243 191.981 167.837C191.981 167.431 191.916 167.053 191.787 166.702C191.658 166.351 191.459 166.068 191.19 165.852C190.921 165.635 190.578 165.527 190.162 165.527C189.745 165.527 189.402 165.635 189.133 165.852C188.865 166.068 188.665 166.351 188.536 166.702C188.407 167.053 188.342 167.431 188.342 167.837C188.342 168.243 188.407 168.62 188.536 168.968C188.665 169.316 188.865 169.597 189.133 169.811C189.402 170.024 189.745 170.131 190.162 170.131ZM195.273 167.188V170.843H194.339V164.768H195.241V165.717H195.32C195.462 165.409 195.679 165.161 195.969 164.974C196.259 164.784 196.633 164.689 197.092 164.689C197.503 164.689 197.863 164.773 198.172 164.942C198.48 165.108 198.72 165.361 198.891 165.701C199.063 166.039 199.148 166.466 199.148 166.983V170.843H198.215V167.046C198.215 166.569 198.091 166.197 197.843 165.931C197.595 165.662 197.255 165.527 196.823 165.527C196.525 165.527 196.259 165.592 196.024 165.721C195.792 165.85 195.609 166.039 195.474 166.287C195.34 166.535 195.273 166.835 195.273 167.188Z" fill="#717171"/>
</g>
<path d="M240.208 149.122V149.47H240.556H265.614H265.963V149.122V147.556C265.963 146.772 265.651 146.019 265.096 145.464C264.541 144.91 263.789 144.598 263.004 144.598H243.166C242.382 144.598 241.629 144.91 241.074 145.464C240.52 146.019 240.208 146.772 240.208 147.556V149.122ZM265.963 151.21V150.862H265.614H240.556H240.208V151.21V161.129C240.208 161.914 240.52 162.667 241.074 163.221C241.629 163.776 242.382 164.088 243.166 164.088H263.004C263.789 164.088 264.541 163.776 265.096 163.221C265.651 162.667 265.963 161.914 265.963 161.129V151.21ZM238.816 147.556C238.816 146.402 239.274 145.296 240.09 144.48C240.906 143.664 242.012 143.206 243.166 143.206H263.004C264.158 143.206 265.265 143.664 266.08 144.48C266.896 145.296 267.355 146.402 267.355 147.556V161.129C267.355 162.283 266.896 163.39 266.08 164.206C265.265 165.022 264.158 165.48 263.004 165.48H243.166C242.012 165.48 240.906 165.022 240.09 164.206C239.274 163.39 238.816 162.283 238.816 161.129V147.556ZM258.306 157.823H261.438C261.623 157.823 261.8 157.896 261.93 158.027C262.061 158.158 262.134 158.335 262.134 158.519C262.134 158.704 262.061 158.881 261.93 159.011C261.8 159.142 261.623 159.215 261.438 159.215H258.306C258.121 159.215 257.944 159.142 257.814 159.011C257.683 158.881 257.61 158.704 257.61 158.519C257.61 158.335 257.683 158.158 257.814 158.027C257.944 157.896 258.121 157.823 258.306 157.823Z" fill="#4CAF4F" stroke="#4CAF4F" stroke-width="0.696069"/>
<g clip-path="url(#clip5_41_1798)">
<path d="M288.244 138.668V152.843H285.248V141.513H285.164L281.918 143.548V140.89L285.427 138.668H288.244ZM294.084 150.905L294.008 151.666C293.948 152.275 293.833 152.882 293.662 153.486C293.496 154.096 293.32 154.647 293.136 155.141C292.956 155.634 292.811 156.022 292.7 156.303H290.79C290.859 156.031 290.953 155.65 291.073 155.161C291.193 154.677 291.306 154.132 291.413 153.528C291.519 152.924 291.586 152.308 291.613 151.68L291.648 150.905H294.084ZM301.614 138.474C302.343 138.474 303.045 138.597 303.718 138.841C304.397 139.086 305.001 139.476 305.532 140.011C306.067 140.546 306.489 141.257 306.798 142.143C307.112 143.024 307.271 144.106 307.276 145.389C307.276 146.593 307.14 147.668 306.867 148.614C306.6 149.555 306.215 150.356 305.712 151.016C305.209 151.675 304.602 152.178 303.891 152.524C303.181 152.866 302.387 153.037 301.51 153.037C300.565 153.037 299.729 152.854 299.005 152.49C298.281 152.121 297.697 151.62 297.254 150.988C296.816 150.351 296.55 149.636 296.458 148.842H299.413C299.529 149.359 299.771 149.761 300.14 150.047C300.509 150.328 300.966 150.469 301.51 150.469C302.433 150.469 303.135 150.067 303.614 149.265C304.094 148.457 304.337 147.352 304.341 145.949H304.244C304.032 146.365 303.746 146.722 303.386 147.022C303.026 147.317 302.613 147.546 302.147 147.707C301.686 147.869 301.194 147.95 300.673 147.95C299.838 147.95 299.093 147.753 298.437 147.361C297.782 146.969 297.265 146.429 296.887 145.742C296.509 145.054 296.32 144.27 296.32 143.388C296.315 142.438 296.534 141.591 296.977 140.848C297.42 140.106 298.038 139.524 298.832 139.104C299.63 138.68 300.558 138.47 301.614 138.474ZM301.635 140.828C301.169 140.828 300.754 140.938 300.389 141.16C300.029 141.381 299.743 141.679 299.531 142.053C299.323 142.426 299.222 142.844 299.226 143.305C299.226 143.771 299.328 144.191 299.531 144.565C299.739 144.934 300.02 145.23 300.375 145.451C300.735 145.668 301.146 145.776 301.607 145.776C301.953 145.776 302.274 145.712 302.569 145.582C302.865 145.453 303.121 145.276 303.338 145.05C303.559 144.819 303.732 144.554 303.857 144.254C303.981 143.954 304.044 143.635 304.044 143.299C304.039 142.851 303.933 142.44 303.725 142.067C303.518 141.693 303.232 141.393 302.867 141.167C302.502 140.941 302.092 140.828 301.635 140.828ZM309.352 152.843V150.683L314.398 146.012C314.827 145.596 315.187 145.223 315.477 144.89C315.773 144.558 315.996 144.233 316.149 143.914C316.301 143.592 316.377 143.243 316.377 142.869C316.377 142.454 316.282 142.097 316.093 141.797C315.904 141.492 315.646 141.259 315.318 141.098C314.991 140.931 314.619 140.848 314.204 140.848C313.77 140.848 313.392 140.936 313.069 141.111C312.746 141.287 312.497 141.538 312.321 141.866C312.146 142.193 312.058 142.583 312.058 143.036H309.214C309.214 142.108 309.424 141.303 309.844 140.62C310.263 139.937 310.852 139.409 311.608 139.035C312.365 138.661 313.237 138.474 314.225 138.474C315.24 138.474 316.123 138.654 316.875 139.014C317.632 139.37 318.22 139.863 318.64 140.495C319.06 141.128 319.27 141.852 319.27 142.669C319.27 143.204 319.164 143.732 318.952 144.254C318.744 144.775 318.373 145.354 317.837 145.991C317.302 146.623 316.548 147.382 315.574 148.268L313.505 150.296V150.393H319.457V152.843H309.352ZM327.069 153.037C326.339 153.032 325.636 152.91 324.958 152.67C324.284 152.43 323.679 152.04 323.144 151.5C322.609 150.96 322.185 150.245 321.871 149.355C321.562 148.464 321.407 147.37 321.407 146.074C321.412 144.883 321.548 143.82 321.815 142.883C322.088 141.942 322.475 141.144 322.978 140.489C323.486 139.833 324.092 139.335 324.798 138.994C325.504 138.648 326.296 138.474 327.172 138.474C328.118 138.474 328.953 138.659 329.678 139.028C330.402 139.393 330.984 139.889 331.422 140.516C331.865 141.144 332.132 141.847 332.225 142.627H329.269C329.154 142.133 328.912 141.746 328.543 141.464C328.174 141.183 327.717 141.042 327.172 141.042C326.25 141.042 325.548 141.444 325.068 142.246C324.593 143.049 324.351 144.141 324.342 145.52H324.438C324.651 145.1 324.937 144.743 325.297 144.447C325.661 144.148 326.074 143.919 326.536 143.762C327.002 143.601 327.493 143.52 328.01 143.52C328.85 143.52 329.597 143.718 330.252 144.115C330.907 144.507 331.424 145.047 331.803 145.735C332.181 146.422 332.37 147.209 332.37 148.095C332.37 149.055 332.146 149.908 331.699 150.656C331.256 151.403 330.635 151.989 329.837 152.414C329.043 152.834 328.121 153.041 327.069 153.037ZM327.055 150.683C327.516 150.683 327.929 150.573 328.294 150.351C328.658 150.13 328.944 149.83 329.152 149.451C329.359 149.073 329.463 148.649 329.463 148.178C329.463 147.707 329.359 147.285 329.152 146.911C328.949 146.538 328.667 146.24 328.307 146.019C327.948 145.797 327.537 145.686 327.075 145.686C326.729 145.686 326.409 145.751 326.113 145.88C325.823 146.009 325.567 146.189 325.345 146.42C325.128 146.651 324.958 146.918 324.833 147.223C324.708 147.523 324.646 147.843 324.646 148.185C324.646 148.642 324.75 149.059 324.958 149.438C325.17 149.816 325.456 150.118 325.816 150.344C326.18 150.57 326.593 150.683 327.055 150.683ZM337.137 150.905L337.061 151.666C337.001 152.275 336.886 152.882 336.715 153.486C336.549 154.096 336.373 154.647 336.189 155.141C336.009 155.634 335.864 156.022 335.753 156.303H333.843C333.912 156.031 334.006 155.65 334.126 155.161C334.246 154.677 334.359 154.132 334.465 153.528C334.572 152.924 334.639 152.308 334.666 151.68L334.701 150.905H337.137ZM339.591 150.351V147.991L345.508 138.668H347.543V141.935H346.339L342.608 147.839V147.95H351.017V150.351H339.591ZM346.394 152.843V149.631L346.449 148.586V138.668H349.259V152.843H346.394ZM358.253 153.037C357.22 153.037 356.299 152.859 355.492 152.504C354.689 152.144 354.055 151.65 353.589 151.023C353.127 150.39 352.89 149.661 352.876 148.835H355.893C355.912 149.181 356.025 149.486 356.233 149.749C356.445 150.007 356.726 150.208 357.077 150.351C357.428 150.494 357.822 150.566 358.26 150.566C358.717 150.566 359.121 150.485 359.472 150.323C359.822 150.162 360.097 149.938 360.295 149.652C360.494 149.366 360.593 149.036 360.593 148.662C360.593 148.284 360.487 147.95 360.274 147.659C360.067 147.364 359.767 147.133 359.375 146.967C358.987 146.801 358.526 146.718 357.99 146.718H356.669V144.517H357.99C358.443 144.517 358.842 144.438 359.188 144.281C359.539 144.124 359.811 143.908 360.005 143.631C360.198 143.349 360.295 143.022 360.295 142.648C360.295 142.293 360.21 141.981 360.039 141.714C359.873 141.441 359.638 141.229 359.333 141.077C359.033 140.925 358.683 140.848 358.281 140.848C357.875 140.848 357.504 140.922 357.167 141.07C356.83 141.213 356.56 141.418 356.357 141.686C356.154 141.954 356.046 142.267 356.032 142.627H353.16C353.173 141.81 353.406 141.091 353.859 140.468C354.311 139.845 354.92 139.358 355.686 139.007C356.456 138.652 357.326 138.474 358.295 138.474C359.273 138.474 360.129 138.652 360.863 139.007C361.596 139.363 362.166 139.843 362.572 140.447C362.983 141.047 363.186 141.72 363.181 142.468C363.186 143.262 362.939 143.924 362.441 144.454C361.947 144.985 361.303 145.322 360.51 145.465V145.576C361.553 145.709 362.346 146.072 362.891 146.662C363.44 147.248 363.712 147.982 363.707 148.863C363.712 149.671 363.479 150.388 363.008 151.016C362.542 151.643 361.899 152.137 361.077 152.497C360.256 152.857 359.315 153.037 358.253 153.037ZM371.302 153.037C370.573 153.032 369.869 152.91 369.191 152.67C368.517 152.43 367.913 152.04 367.377 151.5C366.842 150.96 366.418 150.245 366.104 149.355C365.795 148.464 365.64 147.37 365.64 146.074C365.645 144.883 365.781 143.82 366.048 142.883C366.321 141.942 366.708 141.144 367.211 140.489C367.719 139.833 368.325 139.335 369.031 138.994C369.737 138.648 370.529 138.474 371.405 138.474C372.351 138.474 373.186 138.659 373.911 139.028C374.635 139.393 375.217 139.889 375.655 140.516C376.098 141.144 376.366 141.847 376.458 142.627H373.502C373.387 142.133 373.145 141.746 372.776 141.464C372.407 141.183 371.95 141.042 371.405 141.042C370.483 141.042 369.781 141.444 369.301 142.246C368.826 143.049 368.584 144.141 368.575 145.52H368.672C368.884 145.1 369.17 144.743 369.53 144.447C369.894 144.148 370.307 143.919 370.769 143.762C371.235 143.601 371.726 143.52 372.243 143.52C373.083 143.52 373.83 143.718 374.485 144.115C375.14 144.507 375.657 145.047 376.036 145.735C376.414 146.422 376.603 147.209 376.603 148.095C376.603 149.055 376.379 149.908 375.932 150.656C375.489 151.403 374.868 151.989 374.07 152.414C373.276 152.834 372.354 153.041 371.302 153.037ZM371.288 150.683C371.749 150.683 372.162 150.573 372.527 150.351C372.891 150.13 373.177 149.83 373.385 149.451C373.592 149.073 373.696 148.649 373.696 148.178C373.696 147.707 373.592 147.285 373.385 146.911C373.182 146.538 372.9 146.24 372.54 146.019C372.181 145.797 371.77 145.686 371.308 145.686C370.962 145.686 370.642 145.751 370.346 145.88C370.056 146.009 369.8 146.189 369.578 146.42C369.361 146.651 369.191 146.918 369.066 147.223C368.941 147.523 368.879 147.843 368.879 148.185C368.879 148.642 368.983 149.059 369.191 149.438C369.403 149.816 369.689 150.118 370.049 150.344C370.413 150.57 370.826 150.683 371.288 150.683Z" fill="#4D4D4D"/>
<path d="M281.467 163.613V162.743H287.541V163.613H284.994V170.843H284.014V163.613H281.467ZM290.515 170.969C289.967 170.969 289.486 170.839 289.072 170.578C288.661 170.317 288.339 169.952 288.107 169.482C287.878 169.013 287.763 168.465 287.763 167.837C287.763 167.204 287.878 166.652 288.107 166.18C288.339 165.708 288.661 165.341 289.072 165.08C289.486 164.819 289.967 164.689 290.515 164.689C291.064 164.689 291.544 164.819 291.955 165.08C292.369 165.341 292.691 165.708 292.92 166.18C293.152 166.652 293.268 167.204 293.268 167.837C293.268 168.465 293.152 169.013 292.92 169.482C292.691 169.952 292.369 170.317 291.955 170.578C291.544 170.839 291.064 170.969 290.515 170.969ZM290.515 170.131C290.932 170.131 291.275 170.024 291.544 169.811C291.813 169.597 292.012 169.316 292.141 168.968C292.27 168.62 292.335 168.243 292.335 167.837C292.335 167.431 292.27 167.053 292.141 166.702C292.012 166.351 291.813 166.068 291.544 165.852C291.275 165.635 290.932 165.527 290.515 165.527C290.099 165.527 289.756 165.635 289.487 165.852C289.218 166.068 289.019 166.351 288.89 166.702C288.761 167.053 288.696 167.431 288.696 167.837C288.696 168.243 288.761 168.62 288.89 168.968C289.019 169.316 289.218 169.597 289.487 169.811C289.756 170.024 290.099 170.131 290.515 170.131ZM297.335 164.768V165.559H294.187V164.768H297.335ZM295.104 163.313H296.038V169.103C296.038 169.366 296.076 169.564 296.152 169.696C296.231 169.825 296.332 169.912 296.453 169.957C296.577 169.999 296.707 170.02 296.844 170.02C296.947 170.02 297.032 170.015 297.097 170.004C297.163 169.991 297.216 169.981 297.256 169.973L297.446 170.811C297.382 170.835 297.294 170.859 297.181 170.882C297.067 170.909 296.923 170.922 296.749 170.922C296.486 170.922 296.227 170.865 295.974 170.752C295.724 170.638 295.516 170.466 295.349 170.234C295.186 170.002 295.104 169.709 295.104 169.356V163.313ZM300.526 170.985C300.141 170.985 299.792 170.913 299.478 170.768C299.165 170.62 298.915 170.408 298.731 170.131C298.546 169.851 298.454 169.514 298.454 169.118C298.454 168.77 298.523 168.488 298.66 168.272C298.797 168.053 298.98 167.882 299.209 167.758C299.439 167.634 299.692 167.542 299.969 167.481C300.248 167.418 300.529 167.368 300.811 167.331C301.18 167.283 301.48 167.248 301.709 167.224C301.941 167.198 302.11 167.154 302.215 167.093C302.323 167.033 302.377 166.927 302.377 166.777V166.745C302.377 166.355 302.271 166.052 302.057 165.836C301.846 165.62 301.526 165.512 301.096 165.512C300.65 165.512 300.301 165.609 300.048 165.804C299.795 165.999 299.617 166.208 299.514 166.429L298.628 166.113C298.786 165.744 298.997 165.456 299.261 165.25C299.527 165.042 299.817 164.897 300.131 164.815C300.447 164.731 300.758 164.689 301.064 164.689C301.259 164.689 301.484 164.713 301.737 164.76C301.992 164.805 302.239 164.898 302.476 165.041C302.716 165.183 302.915 165.398 303.073 165.686C303.232 165.973 303.311 166.358 303.311 166.84V170.843H302.377V170.02H302.33C302.267 170.152 302.161 170.293 302.013 170.443C301.866 170.594 301.669 170.721 301.424 170.827C301.179 170.932 300.88 170.985 300.526 170.985ZM300.669 170.147C301.038 170.147 301.349 170.074 301.602 169.929C301.858 169.784 302.05 169.597 302.18 169.368C302.311 169.138 302.377 168.897 302.377 168.644V167.79C302.338 167.837 302.251 167.881 302.116 167.92C301.984 167.957 301.832 167.99 301.658 168.019C301.486 168.045 301.319 168.069 301.155 168.09C300.994 168.109 300.864 168.124 300.764 168.138C300.521 168.169 300.294 168.221 300.083 168.292C299.875 168.36 299.706 168.465 299.577 168.604C299.451 168.741 299.387 168.929 299.387 169.166C299.387 169.49 299.507 169.735 299.747 169.901C299.99 170.065 300.297 170.147 300.669 170.147ZM305.948 162.743V170.843H305.014V162.743H305.948ZM310.916 170.843V162.743H315.804V163.613H311.897V166.35H315.551V167.22H311.897V169.973H315.868V170.843H310.916ZM318.142 164.768L319.597 167.252L321.053 164.768H322.128L320.167 167.805L322.128 170.843H321.053L319.597 168.486L318.142 170.843H317.066L318.996 167.805L317.066 164.768H318.142ZM323.46 173.121V164.768H324.362V165.733H324.473C324.541 165.628 324.636 165.493 324.757 165.33C324.881 165.163 325.058 165.016 325.287 164.887C325.519 164.755 325.833 164.689 326.229 164.689C326.74 164.689 327.191 164.817 327.581 165.073C327.971 165.328 328.276 165.691 328.495 166.16C328.714 166.629 328.823 167.183 328.823 167.821C328.823 168.465 328.714 169.022 328.495 169.494C328.276 169.963 327.973 170.327 327.585 170.586C327.198 170.841 326.751 170.969 326.244 170.969C325.854 170.969 325.542 170.905 325.307 170.776C325.072 170.644 324.892 170.495 324.765 170.329C324.639 170.16 324.541 170.02 324.473 169.909H324.394V173.121H323.46ZM324.378 167.805C324.378 168.264 324.445 168.669 324.579 169.02C324.714 169.368 324.91 169.64 325.169 169.838C325.427 170.033 325.743 170.131 326.118 170.131C326.508 170.131 326.834 170.028 327.095 169.822C327.358 169.614 327.556 169.335 327.688 168.984C327.822 168.631 327.89 168.238 327.89 167.805C327.89 167.378 327.824 166.993 327.692 166.651C327.563 166.305 327.366 166.032 327.103 165.832C326.842 165.629 326.513 165.527 326.118 165.527C325.738 165.527 325.419 165.624 325.161 165.816C324.902 166.006 324.707 166.272 324.575 166.615C324.444 166.955 324.378 167.352 324.378 167.805ZM332.715 170.969C332.166 170.969 331.685 170.839 331.271 170.578C330.86 170.317 330.538 169.952 330.306 169.482C330.077 169.013 329.962 168.465 329.962 167.837C329.962 167.204 330.077 166.652 330.306 166.18C330.538 165.708 330.86 165.341 331.271 165.08C331.685 164.819 332.166 164.689 332.715 164.689C333.263 164.689 333.743 164.819 334.154 165.08C334.568 165.341 334.89 165.708 335.119 166.18C335.351 166.652 335.467 167.204 335.467 167.837C335.467 168.465 335.351 169.013 335.119 169.482C334.89 169.952 334.568 170.317 334.154 170.578C333.743 170.839 333.263 170.969 332.715 170.969ZM332.715 170.131C333.131 170.131 333.474 170.024 333.743 169.811C334.012 169.597 334.211 169.316 334.34 168.968C334.469 168.62 334.534 168.243 334.534 167.837C334.534 167.431 334.469 167.053 334.34 166.702C334.211 166.351 334.012 166.068 333.743 165.852C333.474 165.635 333.131 165.527 332.715 165.527C332.298 165.527 331.955 165.635 331.686 165.852C331.417 166.068 331.218 166.351 331.089 166.702C330.96 167.053 330.895 167.431 330.895 167.837C330.895 168.243 330.96 168.62 331.089 168.968C331.218 169.316 331.417 169.597 331.686 169.811C331.955 170.024 332.298 170.131 332.715 170.131ZM336.892 170.843V164.768H337.794V165.686H337.857C337.968 165.385 338.168 165.141 338.458 164.954C338.748 164.767 339.075 164.673 339.439 164.673C339.508 164.673 339.593 164.674 339.696 164.677C339.799 164.68 339.877 164.684 339.929 164.689V165.638C339.898 165.63 339.825 165.618 339.712 165.602C339.601 165.584 339.484 165.575 339.36 165.575C339.065 165.575 338.801 165.637 338.569 165.761C338.34 165.882 338.158 166.051 338.023 166.267C337.891 166.48 337.825 166.724 337.825 166.999V170.843H336.892ZM344.058 164.768V165.559H340.91V164.768H344.058ZM341.828 163.313H342.761V169.103C342.761 169.366 342.799 169.564 342.876 169.696C342.955 169.825 343.055 169.912 343.177 169.957C343.3 169.999 343.431 170.02 343.568 170.02C343.671 170.02 343.755 170.015 343.821 170.004C343.887 169.991 343.94 169.981 343.979 169.973L344.169 170.811C344.106 170.835 344.018 170.859 343.904 170.882C343.791 170.909 343.647 170.922 343.473 170.922C343.209 170.922 342.951 170.865 342.698 170.752C342.447 170.638 342.239 170.466 342.073 170.234C341.91 170.002 341.828 169.709 341.828 169.356V163.313Z" fill="#717171"/>
</g>
</g>
<defs>
<clipPath id="clip0_41_1798">
<rect width="528" height="186" fill="white"/>
</clipPath>
<clipPath id="clip1_41_1798">
<rect width="33.4113" height="33.4113" fill="white" transform="translate(45 28.7944)"/>
</clipPath>
<clipPath id="clip2_41_1798">
<rect width="132.949" height="43" fill="white" transform="translate(89.5488 24)"/>
</clipPath>
<clipPath id="clip3_41_1798">
<rect width="132.949" height="43" fill="white" transform="translate(287.929 24)"/>
</clipPath>
<clipPath id="clip4_41_1798">
<rect width="132.949" height="43" fill="white" transform="translate(82.5488 132.843)"/>
</clipPath>
<clipPath id="clip5_41_1798">
<rect width="132.949" height="43" fill="white" transform="translate(280.929 132.843)"/>
</clipPath>
</defs>
</svg>
